<mxfile host="65bd71144e">
    <diagram id="keI1ShbJeWclpENkdT34" name="第 1 页">
        <mxGraphModel dx="3687" dy="4515" grid="1" gridSize="10" guides="1" tooltips="1" connect="1" arrows="1" fold="1" page="1" pageScale="1" pageWidth="827" pageHeight="1169" math="0" shadow="0">
            <root>
                <mxCell id="0"/>
                <mxCell id="1" parent="0"/>
                <UserObject label="" mermaidData="{&#xa;  &quot;data&quot;: &quot;%%{init: {\&quot;flowchart\&quot;: {\&quot;defaultRenderer\&quot;: \&quot;elk\&quot;}}}%%\nflowchart TD\n\n  subgraph \&quot;用户交互\&quot;\n    User[\&quot;用户\&quot;]:::actor\n    Browser[\&quot;浏览器\&quot;]:::ui\n  end\n\n  subgraph \&quot;Web 应用\&quot;\n    FE[\&quot;React 前端 (React, Vite, AntD)\&quot;]:::ui\n    BE[\&quot;FastAPI 后端 (Python, FastAPI)\&quot;]:::server\n  end\n\n  subgraph \&quot;数据接入\&quot;\n    Excel[\&quot;Excel 文件\&quot;]:::file\n    Scripts[\&quot;Python 脚本 (清理)\&quot;]:::tool\n    CSVFolder[\&quot;标准 CSV 文件夹\&quot;]:::storage\n    Airbyte[\&quot;Airbyte (计划中)\&quot;]:::tool\n  end\n\n  subgraph \&quot;数据处理与存储\&quot;\n    DB[(PostgreSQL 数据库)]:::db\n    subgraph DB_Content [\&quot;数据库详情\&quot;]\n        direction TB\n        StagingDB[(暂存表)]:::db_int\n        CoreTables[(核心表)]:::db_int\n        MartsViews[(dbt 数据集市和视图)]:::db_int\n    end\n    DBT[\&quot;dbt (数据转换)\&quot;]:::tool\n    Alembic[\&quot;Alembic (模式迁移)\&quot;]:::tool\n  end\n\n  subgraph \&quot;报表\&quot;\n    Metabase[\&quot;Metabase\&quot;]:::reporting\n    JimuReport[\&quot;积木报表\&quot;]:::reporting\n  end\n\n  %% 关系连线 %%\n  User --&gt; Browser\n  Browser --&gt; FE\n\n  FE -- \&quot;API 调用\&quot; --&gt; BE\n\n  %% 手动数据流 %%\n  User -- \&quot;上传 Excel\&quot; --&gt; FE\n  FE -- \&quot;发送文件\&quot; --&gt; BE\n  BE -- \&quot;处理文件\&quot; --&gt; Scripts\n  Scripts -- \&quot;创建标准 CSV\&quot; --&gt; CSVFolder\n  BE -- \&quot;加载手动数据\&quot; --&gt; StagingDB\n\n  %% 自动数据流 (计划中) %%\n  CSVFolder -- \&quot;同步数据 (计划中)\&quot; --&gt; Airbyte\n  Airbyte -- \&quot;加载自动数据 (计划中)\&quot; --&gt; StagingDB\n\n  %% 数据库转换流 %%\n  StagingDB -- \&quot;读取原始数据\&quot; --&gt; DBT\n  DBT -- \&quot;写入转换后数据\&quot; --&gt; CoreTables\n  DBT -- \&quot;写入报表数据\&quot; --&gt; MartsViews\n  Alembic -- \&quot;管理模式\&quot; --&gt; DB\n\n  %% 报表流 %%\n  MartsViews -- \&quot;查询数据\&quot; --&gt; Metabase\n  MartsViews -- \&quot;查询数据\&quot; --&gt; JimuReport\n  BE -- \&quot;获取报表 URL 信息\&quot; --&gt; FE\n  FE -- \&quot;嵌入报表 (iframe)\&quot; --&gt; Metabase\n  FE -- \&quot;嵌入报表 (iframe)\&quot; --&gt; JimuReport\n\n  %% 样式定义 %%\n  classDef actor fill:#E1D5E7,stroke:#9673A6,stroke-width:1px;\n  classDef ui fill:#DAE8FC,stroke:#6C8EBF,stroke-width:1px;\n  classDef server fill:#FFF2CC,stroke:#D6B656,stroke-width:1px;\n  classDef file fill:#F8CECC,stroke:#B85450,stroke-width:1px;\n  classDef tool fill:#D5E8D4,stroke:#82B366,stroke-width:1px;\n  classDef storage fill:#E6E6E6,stroke:#666666,stroke-width:1px;\n  classDef db fill:#B1DDF0,stroke:#10739E,stroke-width:2px;\n  classDef db_int fill:#B1DDF0,stroke:#10739E,stroke-width:1px;\n  classDef reporting fill:#FFE6CC,stroke:#D79B00,stroke-width:1px;\n\n  class User,Browser,FE,BE,Excel,Scripts,CSVFolder,Airbyte,DB,StagingDB,CoreTables,MartsViews,DBT,Alembic,Metabase,JimuReport default;&quot;&#xa;}" id="4">
                    <mxCell style="shape=image;noLabel=1;verticalAlign=top;imageAspect=1;image=data:image/svg+xml,PHN2ZyBhcmlhLXJvbGVkZXNjcmlwdGlvbj0iZmxvd2NoYXJ0LWVsayIgcm9sZT0iZ3JhcGhpY3MtZG9jdW1lbnQgZG9jdW1lbnQiIHZpZXdCb3g9IjAgMCAxMjc2LjY1ODIwMzEyNSAxNjc0Ljc2OTA0Mjk2ODc1IiBzdHlsZT0ibWF4LXdpZHRoOiAxMjc2LjY1ODIwMzEyNXB4OyIgY2xhc3M9ImZsb3djaGFydCIgeG1sbnM9Imh0dHA6Ly93d3cudzMub3JnLzIwMDAvc3ZnIiB3aWR0aD0iMTAwJSIgaWQ9ImdlTWVybWFpZE91dHB1dC0xNzQ1MTIxMzI0OTU0Ij48c3R5bGU+I2dlTWVybWFpZE91dHB1dC0xNzQ1MTIxMzI0OTU0e2ZvbnQtZmFtaWx5OiJ0cmVidWNoZXQgbXMiLHZlcmRhbmEsYXJpYWwsc2Fucy1zZXJpZjtmb250LXNpemU6MTZweDtmaWxsOiMwMDAwMDA7fSNnZU1lcm1haWRPdXRwdXQtMTc0NTEyMTMyNDk1NCAuZXJyb3ItaWNvbntmaWxsOiM1NTIyMjI7fSNnZU1lcm1haWRPdXRwdXQtMTc0NTEyMTMyNDk1NCAuZXJyb3ItdGV4dHtmaWxsOiM1NTIyMjI7c3Ryb2tlOiM1NTIyMjI7fSNnZU1lcm1haWRPdXRwdXQtMTc0NTEyMTMyNDk1NCAuZWRnZS10aGlja25lc3Mtbm9ybWFse3N0cm9rZS13aWR0aDoxcHg7fSNnZU1lcm1haWRPdXRwdXQtMTc0NTEyMTMyNDk1NCAuZWRnZS10aGlja25lc3MtdGhpY2t7c3Ryb2tlLXdpZHRoOjMuNXB4O30jZ2VNZXJtYWlkT3V0cHV0LTE3NDUxMjEzMjQ5NTQgLmVkZ2UtcGF0dGVybi1zb2xpZHtzdHJva2UtZGFzaGFycmF5OjA7fSNnZU1lcm1haWRPdXRwdXQtMTc0NTEyMTMyNDk1NCAuZWRnZS10aGlja25lc3MtaW52aXNpYmxle3N0cm9rZS13aWR0aDowO2ZpbGw6bm9uZTt9I2dlTWVybWFpZE91dHB1dC0xNzQ1MTIxMzI0OTU0IC5lZGdlLXBhdHRlcm4tZGFzaGVke3N0cm9rZS1kYXNoYXJyYXk6Mzt9I2dlTWVybWFpZE91dHB1dC0xNzQ1MTIxMzI0OTU0IC5lZGdlLXBhdHRlcm4tZG90dGVke3N0cm9rZS1kYXNoYXJyYXk6Mjt9I2dlTWVybWFpZE91dHB1dC0xNzQ1MTIxMzI0OTU0IC5tYXJrZXJ7ZmlsbDojNjY2O3N0cm9rZTojNjY2O30jZ2VNZXJtYWlkT3V0cHV0LTE3NDUxMjEzMjQ5NTQgLm1hcmtlci5jcm9zc3tzdHJva2U6IzY2Njt9I2dlTWVybWFpZE91dHB1dC0xNzQ1MTIxMzI0OTU0IHN2Z3tmb250LWZhbWlseToidHJlYnVjaGV0IG1zIix2ZXJkYW5hLGFyaWFsLHNhbnMtc2VyaWY7Zm9udC1zaXplOjE2cHg7fSNnZU1lcm1haWRPdXRwdXQtMTc0NTEyMTMyNDk1NCBwe21hcmdpbjowO30jZ2VNZXJtYWlkT3V0cHV0LTE3NDUxMjEzMjQ5NTQgLmxhYmVse2ZvbnQtZmFtaWx5OiJ0cmVidWNoZXQgbXMiLHZlcmRhbmEsYXJpYWwsc2Fucy1zZXJpZjtjb2xvcjojMDAwMDAwO30jZ2VNZXJtYWlkT3V0cHV0LTE3NDUxMjEzMjQ5NTQgLmNsdXN0ZXItbGFiZWwgdGV4dHtmaWxsOiMzMzM7fSNnZU1lcm1haWRPdXRwdXQtMTc0NTEyMTMyNDk1NCAuY2x1c3Rlci1sYWJlbCBzcGFue2NvbG9yOiMzMzM7fSNnZU1lcm1haWRPdXRwdXQtMTc0NTEyMTMyNDk1NCAuY2x1c3Rlci1sYWJlbCBzcGFuIHB7YmFja2dyb3VuZC1jb2xvcjp0cmFuc3BhcmVudDt9I2dlTWVybWFpZE91dHB1dC0xNzQ1MTIxMzI0OTU0IC5sYWJlbCB0ZXh0LCNnZU1lcm1haWRPdXRwdXQtMTc0NTEyMTMyNDk1NCBzcGFue2ZpbGw6IzAwMDAwMDtjb2xvcjojMDAwMDAwO30jZ2VNZXJtYWlkT3V0cHV0LTE3NDUxMjEzMjQ5NTQgLm5vZGUgcmVjdCwjZ2VNZXJtYWlkT3V0cHV0LTE3NDUxMjEzMjQ5NTQgLm5vZGUgY2lyY2xlLCNnZU1lcm1haWRPdXRwdXQtMTc0NTEyMTMyNDk1NCAubm9kZSBlbGxpcHNlLCNnZU1lcm1haWRPdXRwdXQtMTc0NTEyMTMyNDk1NCAubm9kZSBwb2x5Z29uLCNnZU1lcm1haWRPdXRwdXQtMTc0NTEyMTMyNDk1NCAubm9kZSBwYXRoe2ZpbGw6I2VlZTtzdHJva2U6Izk5OTtzdHJva2Utd2lkdGg6MXB4O30jZ2VNZXJtYWlkT3V0cHV0LTE3NDUxMjEzMjQ5NTQgLnJvdWdoLW5vZGUgLmxhYmVsIHRleHQsI2dlTWVybWFpZE91dHB1dC0xNzQ1MTIxMzI0OTU0IC5ub2RlIC5sYWJlbCB0ZXh0LCNnZU1lcm1haWRPdXRwdXQtMTc0NTEyMTMyNDk1NCAuaW1hZ2Utc2hhcGUgLmxhYmVsLCNnZU1lcm1haWRPdXRwdXQtMTc0NTEyMTMyNDk1NCAuaWNvbi1zaGFwZSAubGFiZWx7dGV4dC1hbmNob3I6bWlkZGxlO30jZ2VNZXJtYWlkT3V0cHV0LTE3NDUxMjEzMjQ5NTQgLm5vZGUgLmthdGV4IHBhdGh7ZmlsbDojMDAwO3N0cm9rZTojMDAwO3N0cm9rZS13aWR0aDoxcHg7fSNnZU1lcm1haWRPdXRwdXQtMTc0NTEyMTMyNDk1NCAucm91Z2gtbm9kZSAubGFiZWwsI2dlTWVybWFpZE91dHB1dC0xNzQ1MTIxMzI0OTU0IC5ub2RlIC5sYWJlbCwjZ2VNZXJtYWlkT3V0cHV0LTE3NDUxMjEzMjQ5NTQgLmltYWdlLXNoYXBlIC5sYWJlbCwjZ2VNZXJtYWlkT3V0cHV0LTE3NDUxMjEzMjQ5NTQgLmljb24tc2hhcGUgLmxhYmVse3RleHQtYWxpZ246Y2VudGVyO30jZ2VNZXJtYWlkT3V0cHV0LTE3NDUxMjEzMjQ5NTQgLm5vZGUuY2xpY2thYmxle2N1cnNvcjpwb2ludGVyO30jZ2VNZXJtYWlkT3V0cHV0LTE3NDUxMjEzMjQ5NTQgLnJvb3QgLmFuY2hvciBwYXRoe2ZpbGw6IzY2NiFpbXBvcnRhbnQ7c3Ryb2tlLXdpZHRoOjA7c3Ryb2tlOiM2NjY7fSNnZU1lcm1haWRPdXRwdXQtMTc0NTEyMTMyNDk1NCAuYXJyb3doZWFkUGF0aHtmaWxsOiMzMzMzMzM7fSNnZU1lcm1haWRPdXRwdXQtMTc0NTEyMTMyNDk1NCAuZWRnZVBhdGggLnBhdGh7c3Ryb2tlOiM2NjY7c3Ryb2tlLXdpZHRoOjIuMHB4O30jZ2VNZXJtYWlkT3V0cHV0LTE3NDUxMjEzMjQ5NTQgLmZsb3djaGFydC1saW5re3N0cm9rZTojNjY2O2ZpbGw6bm9uZTt9I2dlTWVybWFpZE91dHB1dC0xNzQ1MTIxMzI0OTU0IC5lZGdlTGFiZWx7YmFja2dyb3VuZC1jb2xvcjp3aGl0ZTt0ZXh0LWFsaWduOmNlbnRlcjt9I2dlTWVybWFpZE91dHB1dC0xNzQ1MTIxMzI0OTU0IC5lZGdlTGFiZWwgcHtiYWNrZ3JvdW5kLWNvbG9yOndoaXRlO30jZ2VNZXJtYWlkT3V0cHV0LTE3NDUxMjEzMjQ5NTQgLmVkZ2VMYWJlbCByZWN0e29wYWNpdHk6MC41O2JhY2tncm91bmQtY29sb3I6d2hpdGU7ZmlsbDp3aGl0ZTt9I2dlTWVybWFpZE91dHB1dC0xNzQ1MTIxMzI0OTU0IC5sYWJlbEJrZ3tiYWNrZ3JvdW5kLWNvbG9yOnJnYmEoMjU1LCAyNTUsIDI1NSwgMC41KTt9I2dlTWVybWFpZE91dHB1dC0xNzQ1MTIxMzI0OTU0IC5jbHVzdGVyIHJlY3R7ZmlsbDpoc2woMCwgMCUsIDk4LjkyMTU2ODYyNzUlKTtzdHJva2U6IzcwNzA3MDtzdHJva2Utd2lkdGg6MXB4O30jZ2VNZXJtYWlkT3V0cHV0LTE3NDUxMjEzMjQ5NTQgLmNsdXN0ZXIgdGV4dHtmaWxsOiMzMzM7fSNnZU1lcm1haWRPdXRwdXQtMTc0NTEyMTMyNDk1NCAuY2x1c3RlciBzcGFue2NvbG9yOiMzMzM7fSNnZU1lcm1haWRPdXRwdXQtMTc0NTEyMTMyNDk1NCBkaXYubWVybWFpZFRvb2x0aXB7cG9zaXRpb246YWJzb2x1dGU7dGV4dC1hbGlnbjpjZW50ZXI7bWF4LXdpZHRoOjIwMHB4O3BhZGRpbmc6MnB4O2ZvbnQtZmFtaWx5OiJ0cmVidWNoZXQgbXMiLHZlcmRhbmEsYXJpYWwsc2Fucy1zZXJpZjtmb250LXNpemU6MTJweDtiYWNrZ3JvdW5kOmhzbCgtMTYwLCAwJSwgOTMuMzMzMzMzMzMzMyUpO2JvcmRlcjoxcHggc29saWQgIzcwNzA3MDtib3JkZXItcmFkaXVzOjJweDtwb2ludGVyLWV2ZW50czpub25lO3otaW5kZXg6MTAwO30jZ2VNZXJtYWlkT3V0cHV0LTE3NDUxMjEzMjQ5NTQgLmZsb3djaGFydFRpdGxlVGV4dHt0ZXh0LWFuY2hvcjptaWRkbGU7Zm9udC1zaXplOjE4cHg7ZmlsbDojMDAwMDAwO30jZ2VNZXJtYWlkT3V0cHV0LTE3NDUxMjEzMjQ5NTQgcmVjdC50ZXh0e2ZpbGw6bm9uZTtzdHJva2Utd2lkdGg6MDt9I2dlTWVybWFpZE91dHB1dC0xNzQ1MTIxMzI0OTU0IC5pY29uLXNoYXBlLCNnZU1lcm1haWRPdXRwdXQtMTc0NTEyMTMyNDk1NCAuaW1hZ2Utc2hhcGV7YmFja2dyb3VuZC1jb2xvcjp3aGl0ZTt0ZXh0LWFsaWduOmNlbnRlcjt9I2dlTWVybWFpZE91dHB1dC0xNzQ1MTIxMzI0OTU0IC5pY29uLXNoYXBlIHAsI2dlTWVybWFpZE91dHB1dC0xNzQ1MTIxMzI0OTU0IC5pbWFnZS1zaGFwZSBwe2JhY2tncm91bmQtY29sb3I6d2hpdGU7cGFkZGluZzoycHg7fSNnZU1lcm1haWRPdXRwdXQtMTc0NTEyMTMyNDk1NCAuaWNvbi1zaGFwZSByZWN0LCNnZU1lcm1haWRPdXRwdXQtMTc0NTEyMTMyNDk1NCAuaW1hZ2Utc2hhcGUgcmVjdHtvcGFjaXR5OjAuNTtiYWNrZ3JvdW5kLWNvbG9yOndoaXRlO2ZpbGw6d2hpdGU7fSNnZU1lcm1haWRPdXRwdXQtMTc0NTEyMTMyNDk1NCA6cm9vdHstLW1lcm1haWQtZm9udC1mYW1pbHk6InRyZWJ1Y2hldCBtcyIsdmVyZGFuYSxhcmlhbCxzYW5zLXNlcmlmO30jZ2VNZXJtYWlkT3V0cHV0LTE3NDUxMjEzMjQ5NTQgLmFjdG9yIHJlY3R7ZmlsbDojRTFENUU3IWltcG9ydGFudDtzdHJva2U6Izk2NzNBNiFpbXBvcnRhbnQ7c3Ryb2tlLXdpZHRoOjFweCFpbXBvcnRhbnQ7fSNnZU1lcm1haWRPdXRwdXQtMTc0NTEyMTMyNDk1NCAuYWN0b3IgcG9seWdvbntmaWxsOiNFMUQ1RTchaW1wb3J0YW50O3N0cm9rZTojOTY3M0E2IWltcG9ydGFudDtzdHJva2Utd2lkdGg6MXB4IWltcG9ydGFudDt9I2dlTWVybWFpZE91dHB1dC0xNzQ1MTIxMzI0OTU0IC5hY3RvciBlbGxpcHNle2ZpbGw6I0UxRDVFNyFpbXBvcnRhbnQ7c3Ryb2tlOiM5NjczQTYhaW1wb3J0YW50O3N0cm9rZS13aWR0aDoxcHghaW1wb3J0YW50O30jZ2VNZXJtYWlkT3V0cHV0LTE3NDUxMjEzMjQ5NTQgLmFjdG9yIGNpcmNsZXtmaWxsOiNFMUQ1RTchaW1wb3J0YW50O3N0cm9rZTojOTY3M0E2IWltcG9ydGFudDtzdHJva2Utd2lkdGg6MXB4IWltcG9ydGFudDt9I2dlTWVybWFpZE91dHB1dC0xNzQ1MTIxMzI0OTU0IC5hY3RvciBwYXRoe2ZpbGw6I0UxRDVFNyFpbXBvcnRhbnQ7c3Ryb2tlOiM5NjczQTYhaW1wb3J0YW50O3N0cm9rZS13aWR0aDoxcHghaW1wb3J0YW50O30jZ2VNZXJtYWlkT3V0cHV0LTE3NDUxMjEzMjQ5NTQgLnVpIHJlY3R7ZmlsbDojREFFOEZDIWltcG9ydGFudDtzdHJva2U6IzZDOEVCRiFpbXBvcnRhbnQ7c3Ryb2tlLXdpZHRoOjFweCFpbXBvcnRhbnQ7fSNnZU1lcm1haWRPdXRwdXQtMTc0NTEyMTMyNDk1NCAudWkgcG9seWdvbntmaWxsOiNEQUU4RkMhaW1wb3J0YW50O3N0cm9rZTojNkM4RUJGIWltcG9ydGFudDtzdHJva2Utd2lkdGg6MXB4IWltcG9ydGFudDt9I2dlTWVybWFpZE91dHB1dC0xNzQ1MTIxMzI0OTU0IC51aSBlbGxpcHNle2ZpbGw6I0RBRThGQyFpbXBvcnRhbnQ7c3Ryb2tlOiM2QzhFQkYhaW1wb3J0YW50O3N0cm9rZS13aWR0aDoxcHghaW1wb3J0YW50O30jZ2VNZXJtYWlkT3V0cHV0LTE3NDUxMjEzMjQ5NTQgLnVpIGNpcmNsZXtmaWxsOiNEQUU4RkMhaW1wb3J0YW50O3N0cm9rZTojNkM4RUJGIWltcG9ydGFudDtzdHJva2Utd2lkdGg6MXB4IWltcG9ydGFudDt9I2dlTWVybWFpZE91dHB1dC0xNzQ1MTIxMzI0OTU0IC51aSBwYXRoe2ZpbGw6I0RBRThGQyFpbXBvcnRhbnQ7c3Ryb2tlOiM2QzhFQkYhaW1wb3J0YW50O3N0cm9rZS13aWR0aDoxcHghaW1wb3J0YW50O30jZ2VNZXJtYWlkT3V0cHV0LTE3NDUxMjEzMjQ5NTQgLnNlcnZlciByZWN0e2ZpbGw6I0ZGRjJDQyFpbXBvcnRhbnQ7c3Ryb2tlOiNENkI2NTYhaW1wb3J0YW50O3N0cm9rZS13aWR0aDoxcHghaW1wb3J0YW50O30jZ2VNZXJtYWlkT3V0cHV0LTE3NDUxMjEzMjQ5NTQgLnNlcnZlciBwb2x5Z29ue2ZpbGw6I0ZGRjJDQyFpbXBvcnRhbnQ7c3Ryb2tlOiNENkI2NTYhaW1wb3J0YW50O3N0cm9rZS13aWR0aDoxcHghaW1wb3J0YW50O30jZ2VNZXJtYWlkT3V0cHV0LTE3NDUxMjEzMjQ5NTQgLnNlcnZlciBlbGxpcHNle2ZpbGw6I0ZGRjJDQyFpbXBvcnRhbnQ7c3Ryb2tlOiNENkI2NTYhaW1wb3J0YW50O3N0cm9rZS13aWR0aDoxcHghaW1wb3J0YW50O30jZ2VNZXJtYWlkT3V0cHV0LTE3NDUxMjEzMjQ5NTQgLnNlcnZlciBjaXJjbGV7ZmlsbDojRkZGMkNDIWltcG9ydGFudDtzdHJva2U6I0Q2QjY1NiFpbXBvcnRhbnQ7c3Ryb2tlLXdpZHRoOjFweCFpbXBvcnRhbnQ7fSNnZU1lcm1haWRPdXRwdXQtMTc0NTEyMTMyNDk1NCAuc2VydmVyIHBhdGh7ZmlsbDojRkZGMkNDIWltcG9ydGFudDtzdHJva2U6I0Q2QjY1NiFpbXBvcnRhbnQ7c3Ryb2tlLXdpZHRoOjFweCFpbXBvcnRhbnQ7fSNnZU1lcm1haWRPdXRwdXQtMTc0NTEyMTMyNDk1NCAuZmlsZSByZWN0e2ZpbGw6I0Y4Q0VDQyFpbXBvcnRhbnQ7c3Ryb2tlOiNCODU0NTAhaW1wb3J0YW50O3N0cm9rZS13aWR0aDoxcHghaW1wb3J0YW50O30jZ2VNZXJtYWlkT3V0cHV0LTE3NDUxMjEzMjQ5NTQgLmZpbGUgcG9seWdvbntmaWxsOiNGOENFQ0MhaW1wb3J0YW50O3N0cm9rZTojQjg1NDUwIWltcG9ydGFudDtzdHJva2Utd2lkdGg6MXB4IWltcG9ydGFudDt9I2dlTWVybWFpZE91dHB1dC0xNzQ1MTIxMzI0OTU0IC5maWxlIGVsbGlwc2V7ZmlsbDojRjhDRUNDIWltcG9ydGFudDtzdHJva2U6I0I4NTQ1MCFpbXBvcnRhbnQ7c3Ryb2tlLXdpZHRoOjFweCFpbXBvcnRhbnQ7fSNnZU1lcm1haWRPdXRwdXQtMTc0NTEyMTMyNDk1NCAuZmlsZSBjaXJjbGV7ZmlsbDojRjhDRUNDIWltcG9ydGFudDtzdHJva2U6I0I4NTQ1MCFpbXBvcnRhbnQ7c3Ryb2tlLXdpZHRoOjFweCFpbXBvcnRhbnQ7fSNnZU1lcm1haWRPdXRwdXQtMTc0NTEyMTMyNDk1NCAuZmlsZSBwYXRoe2ZpbGw6I0Y4Q0VDQyFpbXBvcnRhbnQ7c3Ryb2tlOiNCODU0NTAhaW1wb3J0YW50O3N0cm9rZS13aWR0aDoxcHghaW1wb3J0YW50O30jZ2VNZXJtYWlkT3V0cHV0LTE3NDUxMjEzMjQ5NTQgLnRvb2wgcmVjdHtmaWxsOiNENUU4RDQhaW1wb3J0YW50O3N0cm9rZTojODJCMzY2IWltcG9ydGFudDtzdHJva2Utd2lkdGg6MXB4IWltcG9ydGFudDt9I2dlTWVybWFpZE91dHB1dC0xNzQ1MTIxMzI0OTU0IC50b29sIHBvbHlnb257ZmlsbDojRDVFOEQ0IWltcG9ydGFudDtzdHJva2U6IzgyQjM2NiFpbXBvcnRhbnQ7c3Ryb2tlLXdpZHRoOjFweCFpbXBvcnRhbnQ7fSNnZU1lcm1haWRPdXRwdXQtMTc0NTEyMTMyNDk1NCAudG9vbCBlbGxpcHNle2ZpbGw6I0Q1RThENCFpbXBvcnRhbnQ7c3Ryb2tlOiM4MkIzNjYhaW1wb3J0YW50O3N0cm9rZS13aWR0aDoxcHghaW1wb3J0YW50O30jZ2VNZXJtYWlkT3V0cHV0LTE3NDUxMjEzMjQ5NTQgLnRvb2wgY2lyY2xle2ZpbGw6I0Q1RThENCFpbXBvcnRhbnQ7c3Ryb2tlOiM4MkIzNjYhaW1wb3J0YW50O3N0cm9rZS13aWR0aDoxcHghaW1wb3J0YW50O30jZ2VNZXJtYWlkT3V0cHV0LTE3NDUxMjEzMjQ5NTQgLnRvb2wgcGF0aHtmaWxsOiNENUU4RDQhaW1wb3J0YW50O3N0cm9rZTojODJCMzY2IWltcG9ydGFudDtzdHJva2Utd2lkdGg6MXB4IWltcG9ydGFudDt9I2dlTWVybWFpZE91dHB1dC0xNzQ1MTIxMzI0OTU0IC5zdG9yYWdlIHJlY3R7ZmlsbDojRTZFNkU2IWltcG9ydGFudDtzdHJva2U6IzY2NjY2NiFpbXBvcnRhbnQ7c3Ryb2tlLXdpZHRoOjFweCFpbXBvcnRhbnQ7fSNnZU1lcm1haWRPdXRwdXQtMTc0NTEyMTMyNDk1NCAuc3RvcmFnZSBwb2x5Z29ue2ZpbGw6I0U2RTZFNiFpbXBvcnRhbnQ7c3Ryb2tlOiM2NjY2NjYhaW1wb3J0YW50O3N0cm9rZS13aWR0aDoxcHghaW1wb3J0YW50O30jZ2VNZXJtYWlkT3V0cHV0LTE3NDUxMjEzMjQ5NTQgLnN0b3JhZ2UgZWxsaXBzZXtmaWxsOiNFNkU2RTYhaW1wb3J0YW50O3N0cm9rZTojNjY2NjY2IWltcG9ydGFudDtzdHJva2Utd2lkdGg6MXB4IWltcG9ydGFudDt9I2dlTWVybWFpZE91dHB1dC0xNzQ1MTIxMzI0OTU0IC5zdG9yYWdlIGNpcmNsZXtmaWxsOiNFNkU2RTYhaW1wb3J0YW50O3N0cm9rZTojNjY2NjY2IWltcG9ydGFudDtzdHJva2Utd2lkdGg6MXB4IWltcG9ydGFudDt9I2dlTWVybWFpZE91dHB1dC0xNzQ1MTIxMzI0OTU0IC5zdG9yYWdlIHBhdGh7ZmlsbDojRTZFNkU2IWltcG9ydGFudDtzdHJva2U6IzY2NjY2NiFpbXBvcnRhbnQ7c3Ryb2tlLXdpZHRoOjFweCFpbXBvcnRhbnQ7fSNnZU1lcm1haWRPdXRwdXQtMTc0NTEyMTMyNDk1NCAuZGIgcmVjdHtmaWxsOiNCMURERjAhaW1wb3J0YW50O3N0cm9rZTojMTA3MzlFIWltcG9ydGFudDtzdHJva2Utd2lkdGg6MnB4IWltcG9ydGFudDt9I2dlTWVybWFpZE91dHB1dC0xNzQ1MTIxMzI0OTU0IC5kYiBwb2x5Z29ue2ZpbGw6I0IxRERGMCFpbXBvcnRhbnQ7c3Ryb2tlOiMxMDczOUUhaW1wb3J0YW50O3N0cm9rZS13aWR0aDoycHghaW1wb3J0YW50O30jZ2VNZXJtYWlkT3V0cHV0LTE3NDUxMjEzMjQ5NTQgLmRiIGVsbGlwc2V7ZmlsbDojQjFEREYwIWltcG9ydGFudDtzdHJva2U6IzEwNzM5RSFpbXBvcnRhbnQ7c3Ryb2tlLXdpZHRoOjJweCFpbXBvcnRhbnQ7fSNnZU1lcm1haWRPdXRwdXQtMTc0NTEyMTMyNDk1NCAuZGIgY2lyY2xle2ZpbGw6I0IxRERGMCFpbXBvcnRhbnQ7c3Ryb2tlOiMxMDczOUUhaW1wb3J0YW50O3N0cm9rZS13aWR0aDoycHghaW1wb3J0YW50O30jZ2VNZXJtYWlkT3V0cHV0LTE3NDUxMjEzMjQ5NTQgLmRiIHBhdGh7ZmlsbDojQjFEREYwIWltcG9ydGFudDtzdHJva2U6IzEwNzM5RSFpbXBvcnRhbnQ7c3Ryb2tlLXdpZHRoOjJweCFpbXBvcnRhbnQ7fSNnZU1lcm1haWRPdXRwdXQtMTc0NTEyMTMyNDk1NCAuZGJfaW50IHJlY3R7ZmlsbDojQjFEREYwIWltcG9ydGFudDtzdHJva2U6IzEwNzM5RSFpbXBvcnRhbnQ7c3Ryb2tlLXdpZHRoOjFweCFpbXBvcnRhbnQ7fSNnZU1lcm1haWRPdXRwdXQtMTc0NTEyMTMyNDk1NCAuZGJfaW50IHBvbHlnb257ZmlsbDojQjFEREYwIWltcG9ydGFudDtzdHJva2U6IzEwNzM5RSFpbXBvcnRhbnQ7c3Ryb2tlLXdpZHRoOjFweCFpbXBvcnRhbnQ7fSNnZU1lcm1haWRPdXRwdXQtMTc0NTEyMTMyNDk1NCAuZGJfaW50IGVsbGlwc2V7ZmlsbDojQjFEREYwIWltcG9ydGFudDtzdHJva2U6IzEwNzM5RSFpbXBvcnRhbnQ7c3Ryb2tlLXdpZHRoOjFweCFpbXBvcnRhbnQ7fSNnZU1lcm1haWRPdXRwdXQtMTc0NTEyMTMyNDk1NCAuZGJfaW50IGNpcmNsZXtmaWxsOiNCMURERjAhaW1wb3J0YW50O3N0cm9rZTojMTA3MzlFIWltcG9ydGFudDtzdHJva2Utd2lkdGg6MXB4IWltcG9ydGFudDt9I2dlTWVybWFpZE91dHB1dC0xNzQ1MTIxMzI0OTU0IC5kYl9pbnQgcGF0aHtmaWxsOiNCMURERjAhaW1wb3J0YW50O3N0cm9rZTojMTA3MzlFIWltcG9ydGFudDtzdHJva2Utd2lkdGg6MXB4IWltcG9ydGFudDt9I2dlTWVybWFpZE91dHB1dC0xNzQ1MTIxMzI0OTU0IC5yZXBvcnRpbmcgcmVjdHtmaWxsOiNGRkU2Q0MhaW1wb3J0YW50O3N0cm9rZTojRDc5QjAwIWltcG9ydGFudDtzdHJva2Utd2lkdGg6MXB4IWltcG9ydGFudDt9I2dlTWVybWFpZE91dHB1dC0xNzQ1MTIxMzI0OTU0IC5yZXBvcnRpbmcgcG9seWdvbntmaWxsOiNGRkU2Q0MhaW1wb3J0YW50O3N0cm9rZTojRDc5QjAwIWltcG9ydGFudDtzdHJva2Utd2lkdGg6MXB4IWltcG9ydGFudDt9I2dlTWVybWFpZE91dHB1dC0xNzQ1MTIxMzI0OTU0IC5yZXBvcnRpbmcgZWxsaXBzZXtmaWxsOiNGRkU2Q0MhaW1wb3J0YW50O3N0cm9rZTojRDc5QjAwIWltcG9ydGFudDtzdHJva2Utd2lkdGg6MXB4IWltcG9ydGFudDt9I2dlTWVybWFpZE91dHB1dC0xNzQ1MTIxMzI0OTU0IC5yZXBvcnRpbmcgY2lyY2xle2ZpbGw6I0ZGRTZDQyFpbXBvcnRhbnQ7c3Ryb2tlOiNENzlCMDAhaW1wb3J0YW50O3N0cm9rZS13aWR0aDoxcHghaW1wb3J0YW50O30jZ2VNZXJtYWlkT3V0cHV0LTE3NDUxMjEzMjQ5NTQgLnJlcG9ydGluZyBwYXRoe2ZpbGw6I0ZGRTZDQyFpbXBvcnRhbnQ7c3Ryb2tlOiNENzlCMDAhaW1wb3J0YW50O3N0cm9rZS13aWR0aDoxcHghaW1wb3J0YW50O308L3N0eWxlPjxnPjxtYXJrZXIgb3JpZW50PSJhdXRvIiBtYXJrZXJIZWlnaHQ9IjgiIG1hcmtlcldpZHRoPSI4IiBtYXJrZXJVbml0cz0idXNlclNwYWNlT25Vc2UiIHJlZlk9IjUiIHJlZlg9IjUiIHZpZXdCb3g9IjAgMCAxMCAxMCIgY2xhc3M9Im1hcmtlciBmbG93Y2hhcnQtZWxrIiBpZD0iZ2VNZXJtYWlkT3V0cHV0LTE3NDUxMjEzMjQ5NTRfZmxvd2NoYXJ0LWVsay1wb2ludEVuZCI+PHBhdGggc3R5bGU9InN0cm9rZS13aWR0aDogMTsgc3Ryb2tlLWRhc2hhcnJheTogMSwgMDsiIGNsYXNzPSJhcnJvd01hcmtlclBhdGgiIGQ9Ik0gMCAwIEwgMTAgNSBMIDAgMTAgeiI+PC9wYXRoPjwvbWFya2VyPjxtYXJrZXIgb3JpZW50PSJhdXRvIiBtYXJrZXJIZWlnaHQ9IjgiIG1hcmtlcldpZHRoPSI4IiBtYXJrZXJVbml0cz0idXNlclNwYWNlT25Vc2UiIHJlZlk9IjUiIHJlZlg9IjQuNSIgdmlld0JveD0iMCAwIDEwIDEwIiBjbGFzcz0ibWFya2VyIGZsb3djaGFydC1lbGsiIGlkPSJnZU1lcm1haWRPdXRwdXQtMTc0NTEyMTMyNDk1NF9mbG93Y2hhcnQtZWxrLXBvaW50U3RhcnQiPjxwYXRoIHN0eWxlPSJzdHJva2Utd2lkdGg6IDE7IHN0cm9rZS1kYXNoYXJyYXk6IDEsIDA7IiBjbGFzcz0iYXJyb3dNYXJrZXJQYXRoIiBkPSJNIDAgNSBMIDEwIDEwIEwgMTAgMCB6Ij48L3BhdGg+PC9tYXJrZXI+PG1hcmtlciBvcmllbnQ9ImF1dG8iIG1hcmtlckhlaWdodD0iMTEiIG1hcmtlcldpZHRoPSIxMSIgbWFya2VyVW5pdHM9InVzZXJTcGFjZU9uVXNlIiByZWZZPSI1IiByZWZYPSIxMSIgdmlld0JveD0iMCAwIDEwIDEwIiBjbGFzcz0ibWFya2VyIGZsb3djaGFydC1lbGsiIGlkPSJnZU1lcm1haWRPdXRwdXQtMTc0NTEyMTMyNDk1NF9mbG93Y2hhcnQtZWxrLWNpcmNsZUVuZCI+PGNpcmNsZSBzdHlsZT0ic3Ryb2tlLXdpZHRoOiAxOyBzdHJva2UtZGFzaGFycmF5OiAxLCAwOyIgY2xhc3M9ImFycm93TWFya2VyUGF0aCIgcj0iNSIgY3k9IjUiIGN4PSI1Ij48L2NpcmNsZT48L21hcmtlcj48bWFya2VyIG9yaWVudD0iYXV0byIgbWFya2VySGVpZ2h0PSIxMSIgbWFya2VyV2lkdGg9IjExIiBtYXJrZXJVbml0cz0idXNlclNwYWNlT25Vc2UiIHJlZlk9IjUiIHJlZlg9Ii0xIiB2aWV3Qm94PSIwIDAgMTAgMTAiIGNsYXNzPSJtYXJrZXIgZmxvd2NoYXJ0LWVsayIgaWQ9ImdlTWVybWFpZE91dHB1dC0xNzQ1MTIxMzI0OTU0X2Zsb3djaGFydC1lbGstY2lyY2xlU3RhcnQiPjxjaXJjbGUgc3R5bGU9InN0cm9rZS13aWR0aDogMTsgc3Ryb2tlLWRhc2hhcnJheTogMSwgMDsiIGNsYXNzPSJhcnJvd01hcmtlclBhdGgiIHI9IjUiIGN5PSI1IiBjeD0iNSI+PC9jaXJjbGU+PC9tYXJrZXI+PG1hcmtlciBvcmllbnQ9ImF1dG8iIG1hcmtlckhlaWdodD0iMTEiIG1hcmtlcldpZHRoPSIxMSIgbWFya2VyVW5pdHM9InVzZXJTcGFjZU9uVXNlIiByZWZZPSI1LjIiIHJlZlg9IjEyIiB2aWV3Qm94PSIwIDAgMTEgMTEiIGNsYXNzPSJtYXJrZXIgY3Jvc3MgZmxvd2NoYXJ0LWVsayIgaWQ9ImdlTWVybWFpZE91dHB1dC0xNzQ1MTIxMzI0OTU0X2Zsb3djaGFydC1lbGstY3Jvc3NFbmQiPjxwYXRoIHN0eWxlPSJzdHJva2Utd2lkdGg6IDI7IHN0cm9rZS1kYXNoYXJyYXk6IDEsIDA7IiBjbGFzcz0iYXJyb3dNYXJrZXJQYXRoIiBkPSJNIDEsMSBsIDksOSBNIDEwLDEgbCAtOSw5Ij48L3BhdGg+PC9tYXJrZXI+PG1hcmtlciBvcmllbnQ9ImF1dG8iIG1hcmtlckhlaWdodD0iMTEiIG1hcmtlcldpZHRoPSIxMSIgbWFya2VyVW5pdHM9InVzZXJTcGFjZU9uVXNlIiByZWZZPSI1LjIiIHJlZlg9Ii0xIiB2aWV3Qm94PSIwIDAgMTEgMTEiIGNsYXNzPSJtYXJrZXIgY3Jvc3MgZmxvd2NoYXJ0LWVsayIgaWQ9ImdlTWVybWFpZE91dHB1dC0xNzQ1MTIxMzI0OTU0X2Zsb3djaGFydC1lbGstY3Jvc3NTdGFydCI+PHBhdGggc3R5bGU9InN0cm9rZS13aWR0aDogMjsgc3Ryb2tlLWRhc2hhcnJheTogMSwgMDsiIGNsYXNzPSJhcnJvd01hcmtlclBhdGgiIGQ9Ik0gMSwxIGwgOSw5IE0gMTAsMSBsIC05LDkiPjwvcGF0aD48L21hcmtlcj48ZyBjbGFzcz0icm9vdCI+PGcgY2xhc3M9ImNsdXN0ZXJzIj48ZyBkYXRhLWxvb2s9ImNsYXNzaWMiIGlkPSLmiqXooagiIGNsYXNzPSJjbHVzdGVyIj48cmVjdCBoZWlnaHQ9IjEwNCIgd2lkdGg9Ijk1OC43MjY1NjI1IiB5PSIxNTYyLjc2OTA1ODIyNzUzOSIgeD0iMjk5LjkzMTY0MDYyNSIgc3R5bGU9IiI+PC9yZWN0PjxnIHRyYW5zZm9ybT0idHJhbnNsYXRlKDc2My4yOTQ5MjE4NzUsIDE1NjIuNzY5MDU4MjI3NTM5KSIgY2xhc3M9ImNsdXN0ZXItbGFiZWwiPjxnPjxyZWN0IHN0eWxlPSJzdHJva2U6IG5vbmUiIGNsYXNzPSJiYWNrZ3JvdW5kIj48L3JlY3Q+PHRleHQgc3R5bGU9IiIgeT0iLTEwLjEiPjx0c3BhbiBkeT0iMS4xZW0iIHk9Ii0wLjFlbSIgeD0iMCIgY2xhc3M9InRleHQtb3V0ZXItdHNwYW4iPjx0c3BhbiBmb250LXdlaWdodD0ibm9ybWFsIiBjbGFzcz0idGV4dC1pbm5lci10c3BhbiIgZm9udC1zdHlsZT0ibm9ybWFsIj7miqXooag8L3RzcGFuPjwvdHNwYW4+PC90ZXh0PjwvZz48L2c+PC9nPjxnIGRhdGEtbG9vaz0iY2xhc3NpYyIgaWQ9IuaVsOaNruWkhOeQhuS4juWtmOWCqCIgY2xhc3M9ImNsdXN0ZXIiPjxyZWN0IGhlaWdodD0iNDQzLjc2OTA1ODIyNzUzOTA2IiB3aWR0aD0iOTgwLjk4MDQ2ODc1IiB5PSIxMDQ2LjUiIHg9IjM1LjUiIHN0eWxlPSIiPjwvcmVjdD48ZyB0cmFuc2Zvcm09InRyYW5zbGF0ZSg0NjkuOTkwMjM0Mzc1LCAxMDQ2LjUpIiBjbGFzcz0iY2x1c3Rlci1sYWJlbCI+PGc+PHJlY3Qgc3R5bGU9InN0cm9rZTogbm9uZSIgY2xhc3M9ImJhY2tncm91bmQiPjwvcmVjdD48dGV4dCBzdHlsZT0iIiB5PSItMTAuMSI+PHRzcGFuIGR5PSIxLjFlbSIgeT0iLTAuMWVtIiB4PSIwIiBjbGFzcz0idGV4dC1vdXRlci10c3BhbiI+PHRzcGFuIGZvbnQtd2VpZ2h0PSJub3JtYWwiIGNsYXNzPSJ0ZXh0LWlubmVyLXRzcGFuIiBmb250LXN0eWxlPSJub3JtYWwiPuaVsOaNruWkhOeQhuS4juWtmOWCqDwvdHNwYW4+PC90c3Bhbj48L3RleHQ+PC9nPjwvZz48L2c+PGcgZGF0YS1sb29rPSJjbGFzc2ljIiBpZD0i5pWw5o2u5o6l5YWlIiBjbGFzcz0iY2x1c3RlciI+PHJlY3QgaGVpZ2h0PSIzNTciIHdpZHRoPSI0NDAuNDE0MDYyNSIgeT0iNjE3IiB4PSIxODAuNSIgc3R5bGU9IiI+PC9yZWN0PjxnIHRyYW5zZm9ybT0idHJhbnNsYXRlKDM2OC43MDcwMzEyNSwgNjE3KSIgY2xhc3M9ImNsdXN0ZXItbGFiZWwiPjxnPjxyZWN0IHN0eWxlPSJzdHJva2U6IG5vbmUiIGNsYXNzPSJiYWNrZ3JvdW5kIj48L3JlY3Q+PHRleHQgc3R5bGU9IiIgeT0iLTEwLjEiPjx0c3BhbiBkeT0iMS4xZW0iIHk9Ii0wLjFlbSIgeD0iMCIgY2xhc3M9InRleHQtb3V0ZXItdHNwYW4iPjx0c3BhbiBmb250LXdlaWdodD0ibm9ybWFsIiBjbGFzcz0idGV4dC1pbm5lci10c3BhbiIgZm9udC1zdHlsZT0ibm9ybWFsIj7mlbDmja7mjqXlhaU8L3RzcGFuPjwvdHNwYW4+PC90ZXh0PjwvZz48L2c+PC9nPjxnIGRhdGEtbG9vaz0iY2xhc3NpYyIgaWQ9InN1YkdyYXBoMSIgY2xhc3M9ImNsdXN0ZXIiPjxyZWN0IGhlaWdodD0iMjc4LjUiIHdpZHRoPSIxMjYwLjY1ODIwMzEyNSIgeT0iMjY2IiB4PSI4IiBzdHlsZT0iIj48L3JlY3Q+PGcgdHJhbnNmb3JtPSJ0cmFuc2xhdGUoNjA0LjY0OTQxNDA2MjUsIDI2NikiIGNsYXNzPSJjbHVzdGVyLWxhYmVsIj48Zz48cmVjdCBzdHlsZT0ic3Ryb2tlOiBub25lIiBjbGFzcz0iYmFja2dyb3VuZCI+PC9yZWN0Pjx0ZXh0IHN0eWxlPSIiIHk9Ii0xMC4xIj48dHNwYW4gZHk9IjEuMWVtIiB5PSItMC4xZW0iIHg9IjAiIGNsYXNzPSJ0ZXh0LW91dGVyLXRzcGFuIj48dHNwYW4gZm9udC13ZWlnaHQ9Im5vcm1hbCIgY2xhc3M9InRleHQtaW5uZXItdHNwYW4iIGZvbnQtc3R5bGU9Im5vcm1hbCI+V2ViPC90c3Bhbj48dHNwYW4gZm9udC13ZWlnaHQ9Im5vcm1hbCIgY2xhc3M9InRleHQtaW5uZXItdHNwYW4iIGZvbnQtc3R5bGU9Im5vcm1hbCI+IOW6lOeUqDwvdHNwYW4+PC90c3Bhbj48L3RleHQ+PC9nPjwvZz48L2c+PGcgZGF0YS1sb29rPSJjbGFzc2ljIiBpZD0i55So5oi35Lqk5LqSIiBjbGFzcz0iY2x1c3RlciI+PHJlY3QgaGVpZ2h0PSIyMDgiIHdpZHRoPSIyODcuNTgwMDc4MTI1IiB5PSI4IiB4PSIyNTAuNDc2NTYyNSIgc3R5bGU9IiI+PC9yZWN0PjxnIHRyYW5zZm9ybT0idHJhbnNsYXRlKDM2Mi4yNjY2MDE1NjI1LCA4KSIgY2xhc3M9ImNsdXN0ZXItbGFiZWwiPjxnPjxyZWN0IHN0eWxlPSJzdHJva2U6IG5vbmUiIGNsYXNzPSJiYWNrZ3JvdW5kIj48L3JlY3Q+PHRleHQgc3R5bGU9IiIgeT0iLTEwLjEiPjx0c3BhbiBkeT0iMS4xZW0iIHk9Ii0wLjFlbSIgeD0iMCIgY2xhc3M9InRleHQtb3V0ZXItdHNwYW4iPjx0c3BhbiBmb250LXdlaWdodD0ibm9ybWFsIiBjbGFzcz0idGV4dC1pbm5lci10c3BhbiIgZm9udC1zdHlsZT0ibm9ybWFsIj7nlKjmiLfkuqTkupI8L3RzcGFuPjwvdHNwYW4+PC90ZXh0PjwvZz48L2c+PC9nPjxnIGRhdGEtbG9vaz0iY2xhc3NpYyIgaWQ9IkRCX0NvbnRlbnQiIGNsYXNzPSJjbHVzdGVyIj48cmVjdCBoZWlnaHQ9IjM5My43NjkwNTgyMjc1MzkwNiIgd2lkdGg9IjQ3OC4xMDU0Njg3NSIgeT0iMTA3MS41IiB4PSI1NS41IiBzdHlsZT0iIj48L3JlY3Q+PGcgdHJhbnNmb3JtPSJ0cmFuc2xhdGUoMjU0LjU1MjczNDM3NSwgMTA3MS41KSIgY2xhc3M9ImNsdXN0ZXItbGFiZWwiPjxnPjxyZWN0IHN0eWxlPSJzdHJva2U6IG5vbmUiIGNsYXNzPSJiYWNrZ3JvdW5kIj48L3JlY3Q+PHRleHQgc3R5bGU9IiIgeT0iLTEwLjEiPjx0c3BhbiBkeT0iMS4xZW0iIHk9Ii0wLjFlbSIgeD0iMCIgY2xhc3M9InRleHQtb3V0ZXItdHNwYW4iPjx0c3BhbiBmb250LXdlaWdodD0ibm9ybWFsIiBjbGFzcz0idGV4dC1pbm5lci10c3BhbiIgZm9udC1zdHlsZT0ibm9ybWFsIj7mlbDmja7lupPor6bmg4U8L3RzcGFuPjwvdHNwYW4+PC90ZXh0PjwvZz48L2c+PC9nPjwvZz48ZyBjbGFzcz0iZWRnZVBhdGhzIj48cGF0aCBtYXJrZXItZW5kPSJ1cmwoI2dlTWVybWFpZE91dHB1dC0xNzQ1MTIxMzI0OTU0X2Zsb3djaGFydC1lbGstcG9pbnRFbmQpIiBzdHlsZT0iIiBjbGFzcz0iZWRnZS10aGlja25lc3Mtbm9ybWFsIGVkZ2UtcGF0dGVybi1zb2xpZCBlZGdlLXRoaWNrbmVzcy1ub3JtYWwgZWRnZS1wYXR0ZXJuLXNvbGlkIGZsb3djaGFydC1saW5rIiBpZD0iTF9Vc2VyX0Jyb3dzZXJfMCIgZD0iTTM3MC4zMzksODdMMzY1LjE5NSw5MS4xNjdDMzYwLjA1MSw5NS4zMzMsMzQ5Ljc2NCwxMDMuNjY3LDM0NC42MiwxMTEuMzMzQzMzOS40NzcsMTE5LDMzOS40NzcsMTI2LDMzOS40NzcsMTI5LjVMMzM5LjQ3NywxMzMiPjwvcGF0aD48cGF0aCBtYXJrZXItZW5kPSJ1cmwoI2dlTWVybWFpZE91dHB1dC0xNzQ1MTIxMzI0OTU0X2Zsb3djaGFydC1lbGstcG9pbnRFbmQpIiBzdHlsZT0iIiBjbGFzcz0iZWRnZS10aGlja25lc3Mtbm9ybWFsIGVkZ2UtcGF0dGVybi1zb2xpZCBlZGdlLXRoaWNrbmVzcy1ub3JtYWwgZWRnZS1wYXR0ZXJuLXNvbGlkIGZsb3djaGFydC1saW5rIiBpZD0iTF9Ccm93c2VyX0ZFXzEiIGQ9Ik0zMzkuNDc3LDE5MUwzMzkuNDc3LDE5NS4xNjdDMzM5LjQ3NywxOTkuMzMzLDMzOS40NzcsMjA3LjY2NywzMzkuNDc3LDIxNkMzMzkuNDc3LDIyNC4zMzMsMzM5LjQ3NywyMzIuNjY3LDMzOS40NzcsMjQxQzMzOS40NzcsMjQ5LjMzMywzMzkuNDc3LDI1Ny42NjcsMzQzLjE4NCwyNjUuNTI5QzM0Ni44OTEsMjczLjM5MiwzNTQuMzA1LDI4MC43ODQsMzU4LjAxMiwyODQuNDhMMzYxLjcxOSwyODguMTc2Ij48L3BhdGg+PHBhdGggbWFya2VyLWVuZD0idXJsKCNnZU1lcm1haWRPdXRwdXQtMTc0NTEyMTMyNDk1NF9mbG93Y2hhcnQtZWxrLXBvaW50RW5kKSIgc3R5bGU9IiIgY2xhc3M9ImVkZ2UtdGhpY2tuZXNzLW5vcm1hbCBlZGdlLXBhdHRlcm4tc29saWQgZWRnZS10aGlja25lc3Mtbm9ybWFsIGVkZ2UtcGF0dGVybi1zb2xpZCBmbG93Y2hhcnQtbGluayIgaWQ9IkxfRkVfQkVfMiIgZD0iTTI3My42NywzNjQuMDU0TDI0Ny40NiwzNzAuOTJDMjIxLjI0OSwzNzcuNzg2LDE2OC44MjksMzkxLjUxOCwxNTkuMTc1LDQwNC4yMDVDMTQ5LjUyMiw0MTYuODkxLDE4Mi42MzUsNDI4LjUzMiwxOTkuMTkyLDQzNC4zNTNMMjE1Ljc0OSw0NDAuMTczIj48L3BhdGg+PHBhdGggbWFya2VyLWVuZD0idXJsKCNnZU1lcm1haWRPdXRwdXQtMTc0NTEyMTMyNDk1NF9mbG93Y2hhcnQtZWxrLXBvaW50RW5kKSIgc3R5bGU9IiIgY2xhc3M9ImVkZ2UtdGhpY2tuZXNzLW5vcm1hbCBlZGdlLXBhdHRlcm4tc29saWQgZWRnZS10aGlja25lc3Mtbm9ybWFsIGVkZ2UtcGF0dGVybi1zb2xpZCBmbG93Y2hhcnQtbGluayIgaWQ9IkxfVXNlcl9GRV8zIiBkPSJNNDM3LjAwMSw4N0w0NDIuMTQ1LDkxLjE2N0M0NDcuMjg4LDk1LjMzMyw0NTcuNTc2LDEwMy42NjcsNDYyLjcyLDExNi41QzQ2Ny44NjMsMTI5LjMzMyw0NjcuODYzLDE0Ni42NjcsNDY3Ljg2MywxNjRDNDY3Ljg2MywxODEuMzMzLDQ2Ny44NjMsMTk4LjY2Nyw0NjcuODYzLDIxMS41QzQ2Ny44NjMsMjI0LjMzMyw0NjcuODYzLDIzMi42NjcsNDY3Ljg2MywyNDFDNDY3Ljg2MywyNDkuMzMzLDQ2Ny44NjMsMjU3LjY2Nyw0NjQuMTU2LDI2NS41MjlDNDYwLjQ0OSwyNzMuMzkyLDQ1My4wMzUsMjgwLjc4NCw0NDkuMzI4LDI4NC40OEw0NDUuNjIsMjg4LjE3NiI+PC9wYXRoPjxwYXRoIG1hcmtlci1lbmQ9InVybCgjZ2VNZXJtYWlkT3V0cHV0LTE3NDUxMjEzMjQ5NTRfZmxvd2NoYXJ0LWVsay1wb2ludEVuZCkiIHN0eWxlPSIiIGNsYXNzPSJlZGdlLXRoaWNrbmVzcy1ub3JtYWwgZWRnZS1wYXR0ZXJuLXNvbGlkIGVkZ2UtdGhpY2tuZXNzLW5vcm1hbCBlZGdlLXBhdHRlcm4tc29saWQgZmxvd2NoYXJ0LWxpbmsiIGlkPSJMX0ZFX0JFXzQiIGQ9Ik0zMzUuMzMzLDM2OUwzMjQuNzQ2LDM3NS4wNDJDMzE0LjE2LDM4MS4wODMsMjkyLjk4NywzOTMuMTY3LDI4Ni43LDQwNC43MjRDMjgwLjQxMiw0MTYuMjgyLDI4OS4wMDksNDI3LjMxMywyOTMuMzA4LDQzMi44MjlMMjk3LjYwNiw0MzguMzQ1Ij48L3BhdGg+PHBhdGggbWFya2VyLWVuZD0idXJsKCNnZU1lcm1haWRPdXRwdXQtMTc0NTEyMTMyNDk1NF9mbG93Y2hhcnQtZWxrLXBvaW50RW5kKSIgc3R5bGU9IiIgY2xhc3M9ImVkZ2UtdGhpY2tuZXNzLW5vcm1hbCBlZGdlLXBhdHRlcm4tc29saWQgZWRnZS10aGlja25lc3Mtbm9ybWFsIGVkZ2UtcGF0dGVybi1zb2xpZCBmbG93Y2hhcnQtbGluayIgaWQ9IkxfQkVfU2NyaXB0c181IiBkPSJNNDI2LjgyOSw1MTkuNUw0MzcuMTI1LDUyMy42NjdDNDQ3LjQyMSw1MjcuODMzLDQ2OC4wMTMsNTM2LjE2Nyw0NzguMzA5LDU0Ni4zNzVDNDg4LjYwNSw1NTYuNTgzLDQ4OC42MDUsNTY4LjY2Nyw0ODguNjA1LDU4MC43NUM0ODguNjA1LDU5Mi44MzMsNDg4LjYwNSw2MDQuOTE3LDQ4OC42MDUsNjE0LjQ1OEM0ODguNjA1LDYyNCw0ODguNjA1LDYzMSw0ODguNjA1LDYzNC41TDQ4OC42MDUsNjM4Ij48L3BhdGg+PHBhdGggbWFya2VyLWVuZD0idXJsKCNnZU1lcm1haWRPdXRwdXQtMTc0NTEyMTMyNDk1NF9mbG93Y2hhcnQtZWxrLXBvaW50RW5kKSIgc3R5bGU9IiIgY2xhc3M9ImVkZ2UtdGhpY2tuZXNzLW5vcm1hbCBlZGdlLXBhdHRlcm4tc29saWQgZWRnZS10aGlja25lc3Mtbm9ybWFsIGVkZ2UtcGF0dGVybi1zb2xpZCBmbG93Y2hhcnQtbGluayIgaWQ9IkxfU2NyaXB0c19DU1ZGb2xkZXJfNiIgZD0iTTQ4OC42MDUsNjk2TDQ4OC42MDUsNzAyLjA0MkM0ODguNjA1LDcwOC4wODMsNDg4LjYwNSw3MjAuMTY3LDQ4OC42MDUsNzMxLjU4M0M0ODguNjA1LDc0Myw0ODguNjA1LDc1My43NSw0ODguNjA1LDc1OS4xMjVMNDg4LjYwNSw3NjQuNSI+PC9wYXRoPjxwYXRoIG1hcmtlci1lbmQ9InVybCgjZ2VNZXJtYWlkT3V0cHV0LTE3NDUxMjEzMjQ5NTRfZmxvd2NoYXJ0LWVsay1wb2ludEVuZCkiIHN0eWxlPSIiIGNsYXNzPSJlZGdlLXRoaWNrbmVzcy1ub3JtYWwgZWRnZS1wYXR0ZXJuLXNvbGlkIGVkZ2UtdGhpY2tuZXNzLW5vcm1hbCBlZGdlLXBhdHRlcm4tc29saWQgZmxvd2NoYXJ0LWxpbmsiIGlkPSJMX0JFX1N0YWdpbmdEQl83IiBkPSJNMjAwLjQ1OSw1MTguMzI1TDE4NS40NjYsNTIyLjY4OEMxNzAuNDczLDUyNy4wNSwxNDAuNDg2LDUzNS43NzUsMTI1LjQ5Myw1NDYuMTc5QzExMC41LDU1Ni41ODMsMTEwLjUsNTY4LjY2NywxMTAuNSw1ODAuNzVDMTEwLjUsNTkyLjgzMywxMTAuNSw2MDQuOTE3LDExMC41LDYxOS42MjVDMTEwLjUsNjM0LjMzMywxMTAuNSw2NTEuNjY3LDExMC41LDY3MC44NzVDMTEwLjUsNjkwLjA4MywxMTAuNSw3MTEuMTY3LDExMC41LDczMi4yNUMxMTAuNSw3NTMuMzMzLDExMC41LDc3NC40MTcsMTEwLjUsNzk1LjVDMTEwLjUsODE2LjU4MywxMTAuNSw4MzcuNjY3LDExMC41LDg1OC43NUMxMTAuNSw4NzkuODMzLDExMC41LDkwMC45MTcsMTEwLjUsOTIwLjEyNUMxMTAuNSw5MzkuMzMzLDExMC41LDk1Ni42NjcsMTEwLjUsOTcxLjM3NUMxMTAuNSw5ODYuMDgzLDExMC41LDk5OC4xNjcsMTEwLjUsMTAxMC4yNUMxMTAuNSwxMDIyLjMzMywxMTAuNSwxMDM0LjQxNywxMTAuNSwxMDQ0LjYyNUMxMTAuNSwxMDU0LjgzMywxMTAuNSwxMDYzLjE2NywxNDEuMjY1LDEwNzUuMzE1QzE3Mi4wMjksMTA4Ny40NjMsMjMzLjU1OCwxMTAzLjQyNiwyNjQuMzIzLDExMTEuNDA4TDI5NS4wODcsMTExOS4zOSI+PC9wYXRoPjxwYXRoIG1hcmtlci1lbmQ9InVybCgjZ2VNZXJtYWlkT3V0cHV0LTE3NDUxMjEzMjQ5NTRfZmxvd2NoYXJ0LWVsay1wb2ludEVuZCkiIHN0eWxlPSIiIGNsYXNzPSJlZGdlLXRoaWNrbmVzcy1ub3JtYWwgZWRnZS1wYXR0ZXJuLXNvbGlkIGVkZ2UtdGhpY2tuZXNzLW5vcm1hbCBlZGdlLXBhdHRlcm4tc29saWQgZmxvd2NoYXJ0LWxpbmsiIGlkPSJMX0NTVkZvbGRlcl9BaXJieXRlXzgiIGQ9Ik00ODguNjA1LDgyMi41TDQ4OC42MDUsODI4LjU0MkM0ODguNjA1LDgzNC41ODMsNDg4LjYwNSw4NDYuNjY3LDQ4OC42MDUsODU4LjA4M0M0ODguNjA1LDg2OS41LDQ4OC42MDUsODgwLjI1LDQ4OC42MDUsODg1LjYyNUw0ODguNjA1LDg5MSI+PC9wYXRoPjxwYXRoIG1hcmtlci1lbmQ9InVybCgjZ2VNZXJtYWlkT3V0cHV0LTE3NDUxMjEzMjQ5NTRfZmxvd2NoYXJ0LWVsay1wb2ludEVuZCkiIHN0eWxlPSIiIGNsYXNzPSJlZGdlLXRoaWNrbmVzcy1ub3JtYWwgZWRnZS1wYXR0ZXJuLXNvbGlkIGVkZ2UtdGhpY2tuZXNzLW5vcm1hbCBlZGdlLXBhdHRlcm4tc29saWQgZmxvd2NoYXJ0LWxpbmsiIGlkPSJMX0FpcmJ5dGVfU3RhZ2luZ0RCXzkiIGQ9Ik00ODguNjA1LDk0OUw0ODguNjA1LDk1My4xNjdDNDg4LjYwNSw5NTcuMzMzLDQ4OC42MDUsOTY1LjY2Nyw0ODguNjA1LDk3NS44NzVDNDg4LjYwNSw5ODYuMDgzLDQ4OC42MDUsOTk4LjE2Nyw0ODguNjA1LDEwMTAuMjVDNDg4LjYwNSwxMDIyLjMzMyw0ODguNjA1LDEwMzQuNDE3LDQ4OC42MDUsMTA0NC42MjVDNDg4LjYwNSwxMDU0LjgzMyw0ODguNjA1LDEwNjMuMTY3LDQ2OC4xMjUsMTA3NC43MjRDNDQ3LjY0NCwxMDg2LjI4MSw0MDYuNjgzLDExMDEuMDYxLDM4Ni4yMDIsMTEwOC40NTJMMzY1LjcyMiwxMTE1Ljg0MiI+PC9wYXRoPjxwYXRoIG1hcmtlci1lbmQ9InVybCgjZ2VNZXJtYWlkT3V0cHV0LTE3NDUxMjEzMjQ5NTRfZmxvd2NoYXJ0LWVsay1wb2ludEVuZCkiIHN0eWxlPSIiIGNsYXNzPSJlZGdlLXRoaWNrbmVzcy1ub3JtYWwgZWRnZS1wYXR0ZXJuLXNvbGlkIGVkZ2UtdGhpY2tuZXNzLW5vcm1hbCBlZGdlLXBhdHRlcm4tc29saWQgZmxvd2NoYXJ0LWxpbmsiIGlkPSJMX1N0YWdpbmdEQl9EQlRfMTAiIGQ9Ik0zMzAuNDU5LDExNjAuNjMzTDMzMC40NTksMTE2Ni42NzVDMzMwLjQ1OSwxMTcyLjcxNiwzMzAuNDU5LDExODQuOCwzNjkuNDk2LDExOTguNTQ1QzQwOC41MzMsMTIxMi4yOSw0ODYuNjA3LDEyMjcuNjk3LDUyNS42NDQsMTIzNS40TDU2NC42ODEsMTI0My4xMDQiPjwvcGF0aD48cGF0aCBtYXJrZXItZW5kPSJ1cmwoI2dlTWVybWFpZE91dHB1dC0xNzQ1MTIxMzI0OTU0X2Zsb3djaGFydC1lbGstcG9pbnRFbmQpIiBzdHlsZT0iIiBjbGFzcz0iZWRnZS10aGlja25lc3Mtbm9ybWFsIGVkZ2UtcGF0dGVybi1zb2xpZCBlZGdlLXRoaWNrbmVzcy1ub3JtYWwgZWRnZS1wYXR0ZXJuLXNvbGlkIGZsb3djaGFydC1saW5rIiBpZD0iTF9EQlRfQ29yZVRhYmxlc18xMSIgZD0iTTU2OC42MDUsMTI3MC41NTNMNDk4Ljk5OSwxMjc5LjM1OEM0MjkuMzkzLDEyODguMTYzLDI5MC4xOCwxMzA1Ljc3MywyMjAuNTczLDEzMjEuMzI4QzE1MC45NjcsMTMzNi44ODMsMTUwLjk2NywxMzUwLjM4NCwxNTAuOTY3LDEzNTcuMTM0TDE1MC45NjcsMTM2My44ODUiPjwvcGF0aD48cGF0aCBtYXJrZXItZW5kPSJ1cmwoI2dlTWVybWFpZE91dHB1dC0xNzQ1MTIxMzI0OTU0X2Zsb3djaGFydC1lbGstcG9pbnRFbmQpIiBzdHlsZT0iIiBjbGFzcz0iZWRnZS10aGlja25lc3Mtbm9ybWFsIGVkZ2UtcGF0dGVybi1zb2xpZCBlZGdlLXRoaWNrbmVzcy1ub3JtYWwgZWRnZS1wYXR0ZXJuLXNvbGlkIGZsb3djaGFydC1saW5rIiBpZD0iTF9EQlRfTWFydHNWaWV3c18xMiIgZD0iTTU2OC42MDUsMTI3OS4zMDhMNTM3LjA0OSwxMjg2LjY1NEM1MDUuNDkzLDEyOTQsNDQyLjM4MiwxMzA4LjY5MSw0MTAuODI2LDEzMjEuNDEyQzM3OS4yNywxMzM0LjEzMywzNzkuMjcsMTM0NC44ODMsMzc5LjI3LDEzNTAuMjU4TDM3OS4yNywxMzU1LjYzMyI+PC9wYXRoPjxwYXRoIG1hcmtlci1lbmQ9InVybCgjZ2VNZXJtYWlkT3V0cHV0LTE3NDUxMjEzMjQ5NTRfZmxvd2NoYXJ0LWVsay1wb2ludEVuZCkiIHN0eWxlPSIiIGNsYXNzPSJlZGdlLXRoaWNrbmVzcy1ub3JtYWwgZWRnZS1wYXR0ZXJuLXNvbGlkIGVkZ2UtdGhpY2tuZXNzLW5vcm1hbCBlZGdlLXBhdHRlcm4tc29saWQgZmxvd2NoYXJ0LWxpbmsiIGlkPSJMX0FsZW1iaWNfREJfMTMiIGQ9Ik04ODIuNDE0LDEyODcuMTMzTDg4Mi40MTQsMTI5My4xNzVDODgyLjQxNCwxMjk5LjIxNiw4ODIuNDE0LDEzMTEuMyw4ODIuNDE0LDEzMjIuODE1Qzg4Mi40MTQsMTMzNC4zMyw4ODIuNDE0LDEzNDUuMjc2LDg4Mi40MTQsMTM1MC43NUw4ODIuNDE0LDEzNTYuMjIzIj48L3BhdGg+PHBhdGggbWFya2VyLWVuZD0idXJsKCNnZU1lcm1haWRPdXRwdXQtMTc0NTEyMTMyNDk1NF9mbG93Y2hhcnQtZWxrLXBvaW50RW5kKSIgc3R5bGU9IiIgY2xhc3M9ImVkZ2UtdGhpY2tuZXNzLW5vcm1hbCBlZGdlLXBhdHRlcm4tc29saWQgZWRnZS10aGlja25lc3Mtbm9ybWFsIGVkZ2UtcGF0dGVybi1zb2xpZCBmbG93Y2hhcnQtbGluayIgaWQ9IkxfTWFydHNWaWV3c19NZXRhYmFzZV8xNCIgZD0iTTM3My4wOTcsMTQ0MC4yMjZMMzcyLjQ1OSwxNDQ0LjM5OUMzNzEuODIxLDE0NDguNTczLDM3MC41NDUsMTQ1Ni45MjEsMzY5LjkwNywxNDY1LjI2MkMzNjkuMjcsMTQ3My42MDIsMzY5LjI3LDE0ODEuOTM2LDM2OS4yNywxNDkyLjE0NEMzNjkuMjcsMTUwMi4zNTIsMzY5LjI3LDE1MTQuNDM2LDM2OS4yNywxNTI2LjUxOUMzNjkuMjcsMTUzOC42MDIsMzY5LjI3LDE1NTAuNjg2LDM3Ni45NiwxNTYwLjU5NUMzODQuNjUsMTU3MC41MDMsNDAwLjAzLDE1NzguMjM4LDQwNy43MiwxNTgyLjEwNUw0MTUuNDEsMTU4NS45NzIiPjwvcGF0aD48cGF0aCBtYXJrZXItZW5kPSJ1cmwoI2dlTWVybWFpZE91dHB1dC0xNzQ1MTIxMzI0OTU0X2Zsb3djaGFydC1lbGstcG9pbnRFbmQpIiBzdHlsZT0iIiBjbGFzcz0iZWRnZS10aGlja25lc3Mtbm9ybWFsIGVkZ2UtcGF0dGVybi1zb2xpZCBlZGdlLXRoaWNrbmVzcy1ub3JtYWwgZWRnZS1wYXR0ZXJuLXNvbGlkIGZsb3djaGFydC1saW5rIiBpZD0iTF9NYXJ0c1ZpZXdzX0ppbXVSZXBvcnRfMTUiIGQ9Ik00MzMuNDg4LDE0MzYuMzY3TDQzOS4wOTEsMTQ0MS4xODRDNDQ0LjY5NSwxNDQ2LjAwMSw0NTUuOTAxLDE0NTUuNjM1LDQ2MS41MDQsMTQ2NC42MTlDNDY3LjEwNywxNDczLjYwMiw0NjcuMTA3LDE0ODEuOTM2LDUyMi45MywxNDkyLjE0NEM1NzguNzUzLDE1MDIuMzUyLDY5MC4zOTgsMTUxNC40MzYsNzQ2LjIyLDE1MjYuNTE5QzgwMi4wNDMsMTUzOC42MDIsODAyLjA0MywxNTUwLjY4Niw4NDYuOTg3LDE1NjMuNjkxQzg5MS45MywxNTc2LjY5Niw5ODEuODE4LDE1OTAuNjIzLDEwMjYuNzYyLDE1OTcuNTg3TDEwNzEuNzA1LDE2MDQuNTUiPjwvcGF0aD48cGF0aCBtYXJrZXItZW5kPSJ1cmwoI2dlTWVybWFpZE91dHB1dC0xNzQ1MTIxMzI0OTU0X2Zsb3djaGFydC1lbGstcG9pbnRFbmQpIiBzdHlsZT0iIiBjbGFzcz0iZWRnZS10aGlja25lc3Mtbm9ybWFsIGVkZ2UtcGF0dGVybi1zb2xpZCBlZGdlLXRoaWNrbmVzcy1ub3JtYWwgZWRnZS1wYXR0ZXJuLXNvbGlkIGZsb3djaGFydC1saW5rIiBpZD0iTF9CRV9GRV8xNiIgZD0iTTM5OC43OTYsNDQxLjVMNDA5LjM4Miw0MzUuNDU4QzQxOS45NjksNDI5LjQxNyw0NDEuMTQyLDQxNy4zMzMsNDQ3LjQyOSw0MDUuNzc2QzQ1My43MTcsMzk0LjIxOCw0NDUuMTIsMzgzLjE4Nyw0NDAuODIxLDM3Ny42NzFMNDM2LjUyMywzNzIuMTU1Ij48L3BhdGg+PHBhdGggbWFya2VyLWVuZD0idXJsKCNnZU1lcm1haWRPdXRwdXQtMTc0NTEyMTMyNDk1NF9mbG93Y2hhcnQtZWxrLXBvaW50RW5kKSIgc3R5bGU9IiIgY2xhc3M9ImVkZ2UtdGhpY2tuZXNzLW5vcm1hbCBlZGdlLXBhdHRlcm4tc29saWQgZWRnZS10aGlja25lc3Mtbm9ybWFsIGVkZ2UtcGF0dGVybi1zb2xpZCBmbG93Y2hhcnQtbGluayIgaWQ9IkxfRkVfTWV0YWJhc2VfMTciIGQ9Ik01MzMuNjcsMzQ1LjQ1OUw2MTcuNDcyLDM1NS40MjRDNzAxLjI3MywzNjUuMzg5LDg2OC44NzcsMzg1LjMyLDk1Mi42NzksNDA3LjgyNkMxMDM2LjQ4LDQzMC4zMzMsMTAzNi40OCw0NTUuNDE3LDEwMzYuNDgsNDc4LjYyNUMxMDM2LjQ4LDUwMS44MzMsMTAzNi40OCw1MjMuMTY3LDEwMzYuNDgsNTM5Ljg3NUMxMDM2LjQ4LDU1Ni41ODMsMTAzNi40OCw1NjguNjY3LDEwMzYuNDgsNTgwLjc1QzEwMzYuNDgsNTkyLjgzMywxMDM2LjQ4LDYwNC45MTcsMTAzNi40OCw2MTkuNjI1QzEwMzYuNDgsNjM0LjMzMywxMDM2LjQ4LDY1MS42NjcsMTAzNi40OCw2NzAuODc1QzEwMzYuNDgsNjkwLjA4MywxMDM2LjQ4LDcxMS4xNjcsMTAzNi40OCw3MzIuMjVDMTAzNi40OCw3NTMuMzMzLDEwMzYuNDgsNzc0LjQxNywxMDM2LjQ4LDc5NS41QzEwMzYuNDgsODE2LjU4MywxMDM2LjQ4LDgzNy42NjcsMTAzNi40OCw4NTguNzVDMTAzNi40OCw4NzkuODMzLDEwMzYuNDgsOTAwLjkxNywxMDM2LjQ4LDkyMC4xMjVDMTAzNi40OCw5MzkuMzMzLDEwMzYuNDgsOTU2LjY2NywxMDM2LjQ4LDk3MS4zNzVDMTAzNi40OCw5ODYuMDgzLDEwMzYuNDgsOTk4LjE2NywxMDM2LjQ4LDEwMTAuMjVDMTAzNi40OCwxMDIyLjMzMywxMDM2LjQ4LDEwMzQuNDE3LDEwMzYuNDgsMTA0NC42MjVDMTAzNi40OCwxMDU0LjgzMywxMDM2LjQ4LDEwNjMuMTY3LDEwMzYuNDgsMTA3Ni44NDRDMTAzNi40OCwxMDkwLjUyMiwxMDM2LjQ4LDExMDkuNTQ0LDEwMzYuNDgsMTEzMC40NDFDMTAzNi40OCwxMTUxLjMzOSwxMDM2LjQ4LDExNzQuMTExLDEwMzYuNDgsMTE5Ni4wMzlDMTAzNi40OCwxMjE3Ljk2NiwxMDM2LjQ4LDEyMzkuMDUsMTAzNi40OCwxMjYwLjEzM0MxMDM2LjQ4LDEyODEuMjE2LDEwMzYuNDgsMTMwMi4zLDEwMzYuNDgsMTMyNS42MDNDMTAzNi40OCwxMzQ4LjkwNiwxMDM2LjQ4LDEzNzQuNDI4LDEwMzYuNDgsMTM5OC4wNzZDMTAzNi40OCwxNDIxLjcyNCwxMDM2LjQ4LDE0NDMuNDk2LDEwMzYuNDgsMTQ1OC41NDlDMTAzNi40OCwxNDczLjYwMiwxMDM2LjQ4LDE0ODEuOTM2LDk4OC40MDgsMTQ5Mi4xNDRDOTQwLjMzNSwxNTAyLjM1Miw4NDQuMTg5LDE1MTQuNDM2LDc5Ni4xMTYsMTUyNi41MTlDNzQ4LjA0MywxNTM4LjYwMiw3NDguMDQzLDE1NTAuNjg2LDcxMy40MTYsMTU2My4yNjZDNjc4Ljc4OSwxNTc1Ljg0Nyw2MDkuNTM2LDE1ODguOTI1LDU3NC45MDksMTU5NS40NjNMNTQwLjI4MiwxNjAyLjAwMiI+PC9wYXRoPjxwYXRoIG1hcmtlci1lbmQ9InVybCgjZ2VNZXJtYWlkT3V0cHV0LTE3NDUxMjEzMjQ5NTRfZmxvd2NoYXJ0LWVsay1wb2ludEVuZCkiIHN0eWxlPSIiIGNsYXNzPSJlZGdlLXRoaWNrbmVzcy1ub3JtYWwgZWRnZS1wYXR0ZXJuLXNvbGlkIGVkZ2UtdGhpY2tuZXNzLW5vcm1hbCBlZGdlLXBhdHRlcm4tc29saWQgZmxvd2NoYXJ0LWxpbmsiIGlkPSJMX0ZFX0ppbXVSZXBvcnRfMTgiIGQ9Ik01MzMuNjcsMzQyLjI4Mkw2NDQuNzUxLDM1Mi43NzdDNzU1LjgzMywzNjMuMjcxLDk3Ny45OTUsMzg0LjI2MSwxMDg5LjA3Nyw0MDcuMjk3QzEyMDAuMTU4LDQzMC4zMzMsMTIwMC4xNTgsNDU1LjQxNywxMjAwLjE1OCw0NzguNjI1QzEyMDAuMTU4LDUwMS44MzMsMTIwMC4xNTgsNTIzLjE2NywxMjAwLjE1OCw1MzkuODc1QzEyMDAuMTU4LDU1Ni41ODMsMTIwMC4xNTgsNTY4LjY2NywxMjAwLjE1OCw1ODAuNzVDMTIwMC4xNTgsNTkyLjgzMywxMjAwLjE1OCw2MDQuOTE3LDEyMDAuMTU4LDYxOS42MjVDMTIwMC4xNTgsNjM0LjMzMywxMjAwLjE1OCw2NTEuNjY3LDEyMDAuMTU4LDY3MC44NzVDMTIwMC4xNTgsNjkwLjA4MywxMjAwLjE1OCw3MTEuMTY3LDEyMDAuMTU4LDczMi4yNUMxMjAwLjE1OCw3NTMuMzMzLDEyMDAuMTU4LDc3NC40MTcsMTIwMC4xNTgsNzk1LjVDMTIwMC4xNTgsODE2LjU4MywxMjAwLjE1OCw4MzcuNjY3LDEyMDAuMTU4LDg1OC43NUMxMjAwLjE1OCw4NzkuODMzLDEyMDAuMTU4LDkwMC45MTcsMTIwMC4xNTgsOTIwLjEyNUMxMjAwLjE1OCw5MzkuMzMzLDEyMDAuMTU4LDk1Ni42NjcsMTIwMC4xNTgsOTcxLjM3NUMxMjAwLjE1OCw5ODYuMDgzLDEyMDAuMTU4LDk5OC4xNjcsMTIwMC4xNTgsMTAxMC4yNUMxMjAwLjE1OCwxMDIyLjMzMywxMjAwLjE1OCwxMDM0LjQxNywxMjAwLjE1OCwxMDQ0LjYyNUMxMjAwLjE1OCwxMDU0LjgzMywxMjAwLjE1OCwxMDYzLjE2NywxMjAwLjE1OCwxMDc2Ljg0NEMxMjAwLjE1OCwxMDkwLjUyMiwxMjAwLjE1OCwxMTA5LjU0NCwxMjAwLjE1OCwxMTMwLjQ0MUMxMjAwLjE1OCwxMTUxLjMzOSwxMjAwLjE1OCwxMTc0LjExMSwxMjAwLjE1OCwxMTk2LjAzOUMxMjAwLjE1OCwxMjE3Ljk2NiwxMjAwLjE1OCwxMjM5LjA1LDEyMDAuMTU4LDEyNjAuMTMzQzEyMDAuMTU4LDEyODEuMjE2LDEyMDAuMTU4LDEzMDIuMywxMjAwLjE1OCwxMzI1LjYwM0MxMjAwLjE1OCwxMzQ4LjkwNiwxMjAwLjE1OCwxMzc0LjQyOCwxMjAwLjE1OCwxMzk4LjA3NkMxMjAwLjE1OCwxNDIxLjcyNCwxMjAwLjE1OCwxNDQzLjQ5NiwxMjAwLjE1OCwxNDU4LjU0OUMxMjAwLjE1OCwxNDczLjYwMiwxMjAwLjE1OCwxNDgxLjkzNiwxMjAwLjE1OCwxNDkyLjE0NEMxMjAwLjE1OCwxNTAyLjM1MiwxMjAwLjE1OCwxNTE0LjQzNiwxMjAwLjE1OCwxNTI2LjUxOUMxMjAwLjE1OCwxNTM4LjYwMiwxMjAwLjE1OCwxNTUwLjY4NiwxMTk1LjY2MywxNTYwLjQ2OEMxMTkxLjE2NywxNTcwLjI1LDExODIuMTc2LDE1NzcuNzMsMTE3Ny42ODEsMTU4MS40N0wxMTczLjE4NSwxNTg1LjIxMSI+PC9wYXRoPjwvZz48ZyBjbGFzcz0iZWRnZUxhYmVscyI+PGc+PHJlY3Qgc3R5bGU9InN0cm9rZTogbm9uZSIgY2xhc3M9ImJhY2tncm91bmQiPjwvcmVjdD48L2c+PGc+PHJlY3Qgc3R5bGU9InN0cm9rZTogbm9uZSIgY2xhc3M9ImJhY2tncm91bmQiPjwvcmVjdD48L2c+PGcgY2xhc3M9ImVkZ2VMYWJlbCI+PGcgdHJhbnNmb3JtPSJ0cmFuc2xhdGUoMCwgMCkiIGNsYXNzPSJsYWJlbCI+PHRleHQgeT0iLTEwLjEiPjx0c3BhbiBkeT0iMS4xZW0iIHk9Ii0wLjFlbSIgeD0iMCIgY2xhc3M9InRleHQtb3V0ZXItdHNwYW4iPjwvdHNwYW4+PC90ZXh0PjwvZz48L2c+PGcgY2xhc3M9ImVkZ2VMYWJlbCI+PGcgdHJhbnNmb3JtPSJ0cmFuc2xhdGUoMCwgMCkiIGNsYXNzPSJsYWJlbCI+PHRleHQgeT0iLTEwLjEiPjx0c3BhbiBkeT0iMS4xZW0iIHk9Ii0wLjFlbSIgeD0iMCIgY2xhc3M9InRleHQtb3V0ZXItdHNwYW4iPjwvdHNwYW4+PC90ZXh0PjwvZz48L2c+PGcgdHJhbnNmb3JtPSJ0cmFuc2xhdGUoMTE2LjQwODIwMzEyNSwgNDA1LjI1KSIgY2xhc3M9ImVkZ2VMYWJlbCI+PGcgdHJhbnNmb3JtPSJ0cmFuc2xhdGUoLTMxLjgxNjQwNjI1LCAtMTEuMjUpIiBjbGFzcz0ibGFiZWwiPjxnPjxyZWN0IGhlaWdodD0iMjIuNSIgd2lkdGg9IjYzLjYzMjgxMjUiIHk9Ii0xIiB4PSItMiIgc3R5bGU9IiIgY2xhc3M9ImJhY2tncm91bmQiPjwvcmVjdD48dGV4dCBzdHlsZT0iIiB5PSItMTAuMSI+PHRzcGFuIGR5PSIxLjFlbSIgeT0iLTAuMWVtIiB4PSIwIiBjbGFzcz0idGV4dC1vdXRlci10c3BhbiI+PHRzcGFuIGZvbnQtd2VpZ2h0PSJub3JtYWwiIGNsYXNzPSJ0ZXh0LWlubmVyLXRzcGFuIiBmb250LXN0eWxlPSJub3JtYWwiPkFQSTwvdHNwYW4+PHRzcGFuIGZvbnQtd2VpZ2h0PSJub3JtYWwiIGNsYXNzPSJ0ZXh0LWlubmVyLXRzcGFuIiBmb250LXN0eWxlPSJub3JtYWwiPiDosIPnlKg8L3RzcGFuPjwvdHNwYW4+PC90ZXh0PjwvZz48L2c+PC9nPjxnIHRyYW5zZm9ybT0idHJhbnNsYXRlKDQ2Ny44NjMyODEyNSwgMTY0KSIgY2xhc3M9ImVkZ2VMYWJlbCI+PGcgdHJhbnNmb3JtPSJ0cmFuc2xhdGUoLTM5LjM4NjcxODc1LCAtMTEuMjUpIiBjbGFzcz0ibGFiZWwiPjxnPjxyZWN0IGhlaWdodD0iMjIuNSIgd2lkdGg9Ijc4Ljc3MzQzNzUiIHk9Ii0xIiB4PSItMiIgc3R5bGU9IiIgY2xhc3M9ImJhY2tncm91bmQiPjwvcmVjdD48dGV4dCBzdHlsZT0iIiB5PSItMTAuMSI+PHRzcGFuIGR5PSIxLjFlbSIgeT0iLTAuMWVtIiB4PSIwIiBjbGFzcz0idGV4dC1vdXRlci10c3BhbiI+PHRzcGFuIGZvbnQtd2VpZ2h0PSJub3JtYWwiIGNsYXNzPSJ0ZXh0LWlubmVyLXRzcGFuIiBmb250LXN0eWxlPSJub3JtYWwiPuS4iuS8oDwvdHNwYW4+PHRzcGFuIGZvbnQtd2VpZ2h0PSJub3JtYWwiIGNsYXNzPSJ0ZXh0LWlubmVyLXRzcGFuIiBmb250LXN0eWxlPSJub3JtYWwiPiBFeGNlbDwvdHNwYW4+PC90c3Bhbj48L3RleHQ+PC9nPjwvZz48L2c+PGcgdHJhbnNmb3JtPSJ0cmFuc2xhdGUoMjcxLjgxNDQ1MzEyNSwgNDA1LjI1KSIgY2xhc3M9ImVkZ2VMYWJlbCI+PGcgdHJhbnNmb3JtPSJ0cmFuc2xhdGUoLTM0LCAtMTEuMjUpIiBjbGFzcz0ibGFiZWwiPjxnPjxyZWN0IGhlaWdodD0iMjIuNSIgd2lkdGg9IjY4IiB5PSItMSIgeD0iLTIiIHN0eWxlPSIiIGNsYXNzPSJiYWNrZ3JvdW5kIj48L3JlY3Q+PHRleHQgc3R5bGU9IiIgeT0iLTEwLjEiPjx0c3BhbiBkeT0iMS4xZW0iIHk9Ii0wLjFlbSIgeD0iMCIgY2xhc3M9InRleHQtb3V0ZXItdHNwYW4iPjx0c3BhbiBmb250LXdlaWdodD0ibm9ybWFsIiBjbGFzcz0idGV4dC1pbm5lci10c3BhbiIgZm9udC1zdHlsZT0ibm9ybWFsIj7lj5HpgIHmlofku7Y8L3RzcGFuPjwvdHNwYW4+PC90ZXh0PjwvZz48L2c+PC9nPjxnIHRyYW5zZm9ybT0idHJhbnNsYXRlKDQ4OC42MDU0Njg3NSwgNTgwLjc1KSIgY2xhc3M9ImVkZ2VMYWJlbCI+PGcgdHJhbnNmb3JtPSJ0cmFuc2xhdGUoLTM0LCAtMTEuMjUpIiBjbGFzcz0ibGFiZWwiPjxnPjxyZWN0IGhlaWdodD0iMjIuNSIgd2lkdGg9IjY4IiB5PSItMSIgeD0iLTIiIHN0eWxlPSIiIGNsYXNzPSJiYWNrZ3JvdW5kIj48L3JlY3Q+PHRleHQgc3R5bGU9IiIgeT0iLTEwLjEiPjx0c3BhbiBkeT0iMS4xZW0iIHk9Ii0wLjFlbSIgeD0iMCIgY2xhc3M9InRleHQtb3V0ZXItdHNwYW4iPjx0c3BhbiBmb250LXdlaWdodD0ibm9ybWFsIiBjbGFzcz0idGV4dC1pbm5lci10c3BhbiIgZm9udC1zdHlsZT0ibm9ybWFsIj7lpITnkIbmlofku7Y8L3RzcGFuPjwvdHNwYW4+PC90ZXh0PjwvZz48L2c+PC9nPjxnIHRyYW5zZm9ybT0idHJhbnNsYXRlKDQ4OC42MDU0Njg3NSwgNzMyLjI1KSIgY2xhc3M9ImVkZ2VMYWJlbCI+PGcgdHJhbnNmb3JtPSJ0cmFuc2xhdGUoLTQ5Ljc0MjE4NzUsIC0xMS4yNSkiIGNsYXNzPSJsYWJlbCI+PGc+PHJlY3QgaGVpZ2h0PSIyMi41IiB3aWR0aD0iOTkuNDg0Mzc1IiB5PSItMSIgeD0iLTIiIHN0eWxlPSIiIGNsYXNzPSJiYWNrZ3JvdW5kIj48L3JlY3Q+PHRleHQgc3R5bGU9IiIgeT0iLTEwLjEiPjx0c3BhbiBkeT0iMS4xZW0iIHk9Ii0wLjFlbSIgeD0iMCIgY2xhc3M9InRleHQtb3V0ZXItdHNwYW4iPjx0c3BhbiBmb250LXdlaWdodD0ibm9ybWFsIiBjbGFzcz0idGV4dC1pbm5lci10c3BhbiIgZm9udC1zdHlsZT0ibm9ybWFsIj7liJvlu7rmoIflh4Y8L3RzcGFuPjx0c3BhbiBmb250LXdlaWdodD0ibm9ybWFsIiBjbGFzcz0idGV4dC1pbm5lci10c3BhbiIgZm9udC1zdHlsZT0ibm9ybWFsIj4gQ1NWPC90c3Bhbj48L3RzcGFuPjwvdGV4dD48L2c+PC9nPjwvZz48ZyB0cmFuc2Zvcm09InRyYW5zbGF0ZSgxMTAuNSwgNzk1LjUpIiBjbGFzcz0iZWRnZUxhYmVsIj48ZyB0cmFuc2Zvcm09InRyYW5zbGF0ZSgtNTAsIC0xMS4yNSkiIGNsYXNzPSJsYWJlbCI+PGc+PHJlY3QgaGVpZ2h0PSIyMi41IiB3aWR0aD0iMTAwIiB5PSItMSIgeD0iLTIiIHN0eWxlPSIiIGNsYXNzPSJiYWNrZ3JvdW5kIj48L3JlY3Q+PHRleHQgc3R5bGU9IiIgeT0iLTEwLjEiPjx0c3BhbiBkeT0iMS4xZW0iIHk9Ii0wLjFlbSIgeD0iMCIgY2xhc3M9InRleHQtb3V0ZXItdHNwYW4iPjx0c3BhbiBmb250LXdlaWdodD0ibm9ybWFsIiBjbGFzcz0idGV4dC1pbm5lci10c3BhbiIgZm9udC1zdHlsZT0ibm9ybWFsIj7liqDovb3miYvliqjmlbDmja48L3RzcGFuPjwvdHNwYW4+PC90ZXh0PjwvZz48L2c+PC9nPjxnIHRyYW5zZm9ybT0idHJhbnNsYXRlKDQ4OC42MDU0Njg3NSwgODU4Ljc1KSIgY2xhc3M9ImVkZ2VMYWJlbCI+PGcgdHJhbnNmb3JtPSJ0cmFuc2xhdGUoLTY2LjI4NTE1NjI1LCAtMTEuMjUpIiBjbGFzcz0ibGFiZWwiPjxnPjxyZWN0IGhlaWdodD0iMjIuNSIgd2lkdGg9IjEzMi41NzAzMTI1IiB5PSItMSIgeD0iLTIiIHN0eWxlPSIiIGNsYXNzPSJiYWNrZ3JvdW5kIj48L3JlY3Q+PHRleHQgc3R5bGU9IiIgeT0iLTEwLjEiPjx0c3BhbiBkeT0iMS4xZW0iIHk9Ii0wLjFlbSIgeD0iMCIgY2xhc3M9InRleHQtb3V0ZXItdHNwYW4iPjx0c3BhbiBmb250LXdlaWdodD0ibm9ybWFsIiBjbGFzcz0idGV4dC1pbm5lci10c3BhbiIgZm9udC1zdHlsZT0ibm9ybWFsIj7lkIzmraXmlbDmja48L3RzcGFuPjx0c3BhbiBmb250LXdlaWdodD0ibm9ybWFsIiBjbGFzcz0idGV4dC1pbm5lci10c3BhbiIgZm9udC1zdHlsZT0ibm9ybWFsIj4gKOiuoeWIkuS4rSk8L3RzcGFuPjwvdHNwYW4+PC90ZXh0PjwvZz48L2c+PC9nPjxnIHRyYW5zZm9ybT0idHJhbnNsYXRlKDQ4OC42MDU0Njg3NSwgMTAxMC4yNSkiIGNsYXNzPSJlZGdlTGFiZWwiPjxnIHRyYW5zZm9ybT0idHJhbnNsYXRlKC04Mi4yODUxNTYyNSwgLTExLjI1KSIgY2xhc3M9ImxhYmVsIj48Zz48cmVjdCBoZWlnaHQ9IjIyLjUiIHdpZHRoPSIxNjQuNTcwMzEyNSIgeT0iLTEiIHg9Ii0yIiBzdHlsZT0iIiBjbGFzcz0iYmFja2dyb3VuZCI+PC9yZWN0Pjx0ZXh0IHN0eWxlPSIiIHk9Ii0xMC4xIj48dHNwYW4gZHk9IjEuMWVtIiB5PSItMC4xZW0iIHg9IjAiIGNsYXNzPSJ0ZXh0LW91dGVyLXRzcGFuIj48dHNwYW4gZm9udC13ZWlnaHQ9Im5vcm1hbCIgY2xhc3M9InRleHQtaW5uZXItdHNwYW4iIGZvbnQtc3R5bGU9Im5vcm1hbCI+5Yqg6L296Ieq5Yqo5pWw5o2uPC90c3Bhbj48dHNwYW4gZm9udC13ZWlnaHQ9Im5vcm1hbCIgY2xhc3M9InRleHQtaW5uZXItdHNwYW4iIGZvbnQtc3R5bGU9Im5vcm1hbCI+ICjorqHliJLkuK0pPC90c3Bhbj48L3RzcGFuPjwvdGV4dD48L2c+PC9nPjwvZz48ZyB0cmFuc2Zvcm09InRyYW5zbGF0ZSgzMzAuNDU4OTg0Mzc1LCAxMTk2Ljg4Mjk4MDM0NjY3OTcpIiBjbGFzcz0iZWRnZUxhYmVsIj48ZyB0cmFuc2Zvcm09InRyYW5zbGF0ZSgtNTAsIC0xMS4yNSkiIGNsYXNzPSJsYWJlbCI+PGc+PHJlY3QgaGVpZ2h0PSIyMi41IiB3aWR0aD0iMTAwIiB5PSItMSIgeD0iLTIiIHN0eWxlPSIiIGNsYXNzPSJiYWNrZ3JvdW5kIj48L3JlY3Q+PHRleHQgc3R5bGU9IiIgeT0iLTEwLjEiPjx0c3BhbiBkeT0iMS4xZW0iIHk9Ii0wLjFlbSIgeD0iMCIgY2xhc3M9InRleHQtb3V0ZXItdHNwYW4iPjx0c3BhbiBmb250LXdlaWdodD0ibm9ybWFsIiBjbGFzcz0idGV4dC1pbm5lci10c3BhbiIgZm9udC1zdHlsZT0ibm9ybWFsIj7or7vlj5bljp/lp4vmlbDmja48L3RzcGFuPjwvdHNwYW4+PC90ZXh0PjwvZz48L2c+PC9nPjxnIHRyYW5zZm9ybT0idHJhbnNsYXRlKDE1MC45NjY3OTY4NzUsIDEzMjMuMzgyOTgwMzQ2Njc5NykiIGNsYXNzPSJlZGdlTGFiZWwiPjxnIHRyYW5zZm9ybT0idHJhbnNsYXRlKC01OCwgLTExLjI1KSIgY2xhc3M9ImxhYmVsIj48Zz48cmVjdCBoZWlnaHQ9IjIyLjUiIHdpZHRoPSIxMTYiIHk9Ii0xIiB4PSItMiIgc3R5bGU9IiIgY2xhc3M9ImJhY2tncm91bmQiPjwvcmVjdD48dGV4dCBzdHlsZT0iIiB5PSItMTAuMSI+PHRzcGFuIGR5PSIxLjFlbSIgeT0iLTAuMWVtIiB4PSIwIiBjbGFzcz0idGV4dC1vdXRlci10c3BhbiI+PHRzcGFuIGZvbnQtd2VpZ2h0PSJub3JtYWwiIGNsYXNzPSJ0ZXh0LWlubmVyLXRzcGFuIiBmb250LXN0eWxlPSJub3JtYWwiPuWGmeWFpei9rOaNouWQjuaVsOaNrjwvdHNwYW4+PC90c3Bhbj48L3RleHQ+PC9nPjwvZz48L2c+PGcgdHJhbnNmb3JtPSJ0cmFuc2xhdGUoMzc5LjI2OTUzMTI1LCAxMzIzLjM4Mjk4MDM0NjY3OTcpIiBjbGFzcz0iZWRnZUxhYmVsIj48ZyB0cmFuc2Zvcm09InRyYW5zbGF0ZSgtNTAsIC0xMS4yNSkiIGNsYXNzPSJsYWJlbCI+PGc+PHJlY3QgaGVpZ2h0PSIyMi41IiB3aWR0aD0iMTAwIiB5PSItMSIgeD0iLTIiIHN0eWxlPSIiIGNsYXNzPSJiYWNrZ3JvdW5kIj48L3JlY3Q+PHRleHQgc3R5bGU9IiIgeT0iLTEwLjEiPjx0c3BhbiBkeT0iMS4xZW0iIHk9Ii0wLjFlbSIgeD0iMCIgY2xhc3M9InRleHQtb3V0ZXItdHNwYW4iPjx0c3BhbiBmb250LXdlaWdodD0ibm9ybWFsIiBjbGFzcz0idGV4dC1pbm5lci10c3BhbiIgZm9udC1zdHlsZT0ibm9ybWFsIj7lhpnlhaXmiqXooajmlbDmja48L3RzcGFuPjwvdHNwYW4+PC90ZXh0PjwvZz48L2c+PC9nPjxnIHRyYW5zZm9ybT0idHJhbnNsYXRlKDg4Mi40MTQwNjI1LCAxMzIzLjM4Mjk4MDM0NjY3OTcpIiBjbGFzcz0iZWRnZUxhYmVsIj48ZyB0cmFuc2Zvcm09InRyYW5zbGF0ZSgtMzQsIC0xMS4yNSkiIGNsYXNzPSJsYWJlbCI+PGc+PHJlY3QgaGVpZ2h0PSIyMi41IiB3aWR0aD0iNjgiIHk9Ii0xIiB4PSItMiIgc3R5bGU9IiIgY2xhc3M9ImJhY2tncm91bmQiPjwvcmVjdD48dGV4dCBzdHlsZT0iIiB5PSItMTAuMSI+PHRzcGFuIGR5PSIxLjFlbSIgeT0iLTAuMWVtIiB4PSIwIiBjbGFzcz0idGV4dC1vdXRlci10c3BhbiI+PHRzcGFuIGZvbnQtd2VpZ2h0PSJub3JtYWwiIGNsYXNzPSJ0ZXh0LWlubmVyLXRzcGFuIiBmb250LXN0eWxlPSJub3JtYWwiPueuoeeQhuaooeW8jzwvdHNwYW4+PC90c3Bhbj48L3RleHQ+PC9nPjwvZz48L2c+PGcgdHJhbnNmb3JtPSJ0cmFuc2xhdGUoMzY5LjI2OTUzMTI1LCAxNTI2LjUxOTA1ODIyNzUzOSkiIGNsYXNzPSJlZGdlTGFiZWwiPjxnIHRyYW5zZm9ybT0idHJhbnNsYXRlKC0zNCwgLTExLjI1KSIgY2xhc3M9ImxhYmVsIj48Zz48cmVjdCBoZWlnaHQ9IjIyLjUiIHdpZHRoPSI2OCIgeT0iLTEiIHg9Ii0yIiBzdHlsZT0iIiBjbGFzcz0iYmFja2dyb3VuZCI+PC9yZWN0Pjx0ZXh0IHN0eWxlPSIiIHk9Ii0xMC4xIj48dHNwYW4gZHk9IjEuMWVtIiB5PSItMC4xZW0iIHg9IjAiIGNsYXNzPSJ0ZXh0LW91dGVyLXRzcGFuIj48dHNwYW4gZm9udC13ZWlnaHQ9Im5vcm1hbCIgY2xhc3M9InRleHQtaW5uZXItdHNwYW4iIGZvbnQtc3R5bGU9Im5vcm1hbCI+5p+l6K+i5pWw5o2uPC90c3Bhbj48L3RzcGFuPjwvdGV4dD48L2c+PC9nPjwvZz48ZyB0cmFuc2Zvcm09InRyYW5zbGF0ZSg4MDIuMDQyOTY4NzUsIDE1MjYuNTE5MDU4MjI3NTM5KSIgY2xhc3M9ImVkZ2VMYWJlbCI+PGcgdHJhbnNmb3JtPSJ0cmFuc2xhdGUoLTM0LCAtMTEuMjUpIiBjbGFzcz0ibGFiZWwiPjxnPjxyZWN0IGhlaWdodD0iMjIuNSIgd2lkdGg9IjY4IiB5PSItMSIgeD0iLTIiIHN0eWxlPSIiIGNsYXNzPSJiYWNrZ3JvdW5kIj48L3JlY3Q+PHRleHQgc3R5bGU9IiIgeT0iLTEwLjEiPjx0c3BhbiBkeT0iMS4xZW0iIHk9Ii0wLjFlbSIgeD0iMCIgY2xhc3M9InRleHQtb3V0ZXItdHNwYW4iPjx0c3BhbiBmb250LXdlaWdodD0ibm9ybWFsIiBjbGFzcz0idGV4dC1pbm5lci10c3BhbiIgZm9udC1zdHlsZT0ibm9ybWFsIj7mn6Xor6LmlbDmja48L3RzcGFuPjwvdHNwYW4+PC90ZXh0PjwvZz48L2c+PC9nPjxnIHRyYW5zZm9ybT0idHJhbnNsYXRlKDQ2Mi4zMTQ0NTMxMjUsIDQwNS4yNSkiIGNsYXNzPSJlZGdlTGFiZWwiPjxnIHRyYW5zZm9ybT0idHJhbnNsYXRlKC02OC40MTc5Njg3NSwgLTExLjI1KSIgY2xhc3M9ImxhYmVsIj48Zz48cmVjdCBoZWlnaHQ9IjIyLjUiIHdpZHRoPSIxMzYuODM1OTM3NSIgeT0iLTEiIHg9Ii0yIiBzdHlsZT0iIiBjbGFzcz0iYmFja2dyb3VuZCI+PC9yZWN0Pjx0ZXh0IHN0eWxlPSIiIHk9Ii0xMC4xIj48dHNwYW4gZHk9IjEuMWVtIiB5PSItMC4xZW0iIHg9IjAiIGNsYXNzPSJ0ZXh0LW91dGVyLXRzcGFuIj48dHNwYW4gZm9udC13ZWlnaHQ9Im5vcm1hbCIgY2xhc3M9InRleHQtaW5uZXItdHNwYW4iIGZvbnQtc3R5bGU9Im5vcm1hbCI+6I635Y+W5oql6KGoPC90c3Bhbj48dHNwYW4gZm9udC13ZWlnaHQ9Im5vcm1hbCIgY2xhc3M9InRleHQtaW5uZXItdHNwYW4iIGZvbnQtc3R5bGU9Im5vcm1hbCI+IFVSTDwvdHNwYW4+PHRzcGFuIGZvbnQtd2VpZ2h0PSJub3JtYWwiIGNsYXNzPSJ0ZXh0LWlubmVyLXRzcGFuIiBmb250LXN0eWxlPSJub3JtYWwiPiDkv6Hmga88L3RzcGFuPjwvdHNwYW4+PC90ZXh0PjwvZz48L2c+PC9nPjxnIHRyYW5zZm9ybT0idHJhbnNsYXRlKDEwMzYuNDgwNDY4NzUsIDkyMikiIGNsYXNzPSJlZGdlTGFiZWwiPjxnIHRyYW5zZm9ybT0idHJhbnNsYXRlKC02NS44Mzk4NDM3NSwgLTExLjI1KSIgY2xhc3M9ImxhYmVsIj48Zz48cmVjdCBoZWlnaHQ9IjIyLjUiIHdpZHRoPSIxMzEuNjc5Njg3NSIgeT0iLTEiIHg9Ii0yIiBzdHlsZT0iIiBjbGFzcz0iYmFja2dyb3VuZCI+PC9yZWN0Pjx0ZXh0IHN0eWxlPSIiIHk9Ii0xMC4xIj48dHNwYW4gZHk9IjEuMWVtIiB5PSItMC4xZW0iIHg9IjAiIGNsYXNzPSJ0ZXh0LW91dGVyLXRzcGFuIj48dHNwYW4gZm9udC13ZWlnaHQ9Im5vcm1hbCIgY2xhc3M9InRleHQtaW5uZXItdHNwYW4iIGZvbnQtc3R5bGU9Im5vcm1hbCI+5bWM5YWl5oql6KGoPC90c3Bhbj48dHNwYW4gZm9udC13ZWlnaHQ9Im5vcm1hbCIgY2xhc3M9InRleHQtaW5uZXItdHNwYW4iIGZvbnQtc3R5bGU9Im5vcm1hbCI+IChpZnJhbWUpPC90c3Bhbj48L3RzcGFuPjwvdGV4dD48L2c+PC9nPjwvZz48ZyB0cmFuc2Zvcm09InRyYW5zbGF0ZSgxMjAwLjE1ODIwMzEyNSwgOTIyKSIgY2xhc3M9ImVkZ2VMYWJlbCI+PGcgdHJhbnNmb3JtPSJ0cmFuc2xhdGUoLTY1LjgzOTg0Mzc1LCAtMTEuMjUpIiBjbGFzcz0ibGFiZWwiPjxnPjxyZWN0IGhlaWdodD0iMjIuNSIgd2lkdGg9IjEzMS42Nzk2ODc1IiB5PSItMSIgeD0iLTIiIHN0eWxlPSIiIGNsYXNzPSJiYWNrZ3JvdW5kIj48L3JlY3Q+PHRleHQgc3R5bGU9IiIgeT0iLTEwLjEiPjx0c3BhbiBkeT0iMS4xZW0iIHk9Ii0wLjFlbSIgeD0iMCIgY2xhc3M9InRleHQtb3V0ZXItdHNwYW4iPjx0c3BhbiBmb250LXdlaWdodD0ibm9ybWFsIiBjbGFzcz0idGV4dC1pbm5lci10c3BhbiIgZm9udC1zdHlsZT0ibm9ybWFsIj7ltYzlhaXmiqXooag8L3RzcGFuPjx0c3BhbiBmb250LXdlaWdodD0ibm9ybWFsIiBjbGFzcz0idGV4dC1pbm5lci10c3BhbiIgZm9udC1zdHlsZT0ibm9ybWFsIj4gKGlmcmFtZSk8L3RzcGFuPjwvdHNwYW4+PC90ZXh0PjwvZz48L2c+PC9nPjwvZz48ZyBjbGFzcz0ibm9kZXMiPjxnIHRyYW5zZm9ybT0idHJhbnNsYXRlKDQwMy42Njk5MjE4NzUsIDYwKSIgaWQ9ImZsb3djaGFydC1Vc2VyLTAiIGNsYXNzPSJub2RlIGRlZmF1bHQgYWN0b3IgZGVmYXVsdCI+PHJlY3QgaGVpZ2h0PSI1NCIgd2lkdGg9IjkyIiB5PSItMjciIHg9Ii00NiIgc3R5bGU9ImZpbGw6I0UxRDVFNyAhaW1wb3J0YW50O3N0cm9rZTojOTY3M0E2ICFpbXBvcnRhbnQ7c3Ryb2tlLXdpZHRoOjFweCAhaW1wb3J0YW50IiBjbGFzcz0iYmFzaWMgbGFiZWwtY29udGFpbmVyIj48L3JlY3Q+PGcgdHJhbnNmb3JtPSJ0cmFuc2xhdGUoLTE2LCAtMTIpIiBzdHlsZT0iIiBjbGFzcz0ibGFiZWwiPjxyZWN0PjwvcmVjdD48Zm9yZWlnbk9iamVjdCBoZWlnaHQ9IjI0IiB3aWR0aD0iMzIiPjxkaXYgc3R5bGU9ImRpc3BsYXk6IHRhYmxlLWNlbGw7IHdoaXRlLXNwYWNlOiBub3dyYXA7IGxpbmUtaGVpZ2h0OiAxLjU7IG1heC13aWR0aDogMjAwcHg7IHRleHQtYWxpZ246IGNlbnRlcjsiIHhtbG5zPSJodHRwOi8vd3d3LnczLm9yZy8xOTk5L3hodG1sIj48c3BhbiBjbGFzcz0ibm9kZUxhYmVsIj48cD7nlKjmiLc8L3A+PC9zcGFuPjwvZGl2PjwvZm9yZWlnbk9iamVjdD48L2c+PC9nPjxnIHRyYW5zZm9ybT0idHJhbnNsYXRlKDMzOS40NzY1NjI1LCAxNjQpIiBpZD0iZmxvd2NoYXJ0LUJyb3dzZXItMSIgY2xhc3M9Im5vZGUgZGVmYXVsdCB1aSBkZWZhdWx0Ij48cmVjdCBoZWlnaHQ9IjU0IiB3aWR0aD0iMTA4IiB5PSItMjciIHg9Ii01NCIgc3R5bGU9ImZpbGw6I0RBRThGQyAhaW1wb3J0YW50O3N0cm9rZTojNkM4RUJGICFpbXBvcnRhbnQ7c3Ryb2tlLXdpZHRoOjFweCAhaW1wb3J0YW50IiBjbGFzcz0iYmFzaWMgbGFiZWwtY29udGFpbmVyIj48L3JlY3Q+PGcgdHJhbnNmb3JtPSJ0cmFuc2xhdGUoLTI0LCAtMTIpIiBzdHlsZT0iIiBjbGFzcz0ibGFiZWwiPjxyZWN0PjwvcmVjdD48Zm9yZWlnbk9iamVjdCBoZWlnaHQ9IjI0IiB3aWR0aD0iNDgiPjxkaXYgc3R5bGU9ImRpc3BsYXk6IHRhYmxlLWNlbGw7IHdoaXRlLXNwYWNlOiBub3dyYXA7IGxpbmUtaGVpZ2h0OiAxLjU7IG1heC13aWR0aDogMjAwcHg7IHRleHQtYWxpZ246IGNlbnRlcjsiIHhtbG5zPSJodHRwOi8vd3d3LnczLm9yZy8xOTk5L3hodG1sIj48c3BhbiBjbGFzcz0ibm9kZUxhYmVsIj48cD7mtY/op4jlmag8L3A+PC9zcGFuPjwvZGl2PjwvZm9yZWlnbk9iamVjdD48L2c+PC9nPjxnIHRyYW5zZm9ybT0idHJhbnNsYXRlKDQwMy42Njk5MjE4NzUsIDMzMCkiIGlkPSJmbG93Y2hhcnQtRkUtMiIgY2xhc3M9Im5vZGUgZGVmYXVsdCB1aSBkZWZhdWx0Ij48cmVjdCBoZWlnaHQ9Ijc4IiB3aWR0aD0iMjYwIiB5PSItMzkiIHg9Ii0xMzAiIHN0eWxlPSJmaWxsOiNEQUU4RkMgIWltcG9ydGFudDtzdHJva2U6IzZDOEVCRiAhaW1wb3J0YW50O3N0cm9rZS13aWR0aDoxcHggIWltcG9ydGFudCIgY2xhc3M9ImJhc2ljIGxhYmVsLWNvbnRhaW5lciI+PC9yZWN0PjxnIHRyYW5zZm9ybT0idHJhbnNsYXRlKC0xMDAsIC0yNCkiIHN0eWxlPSIiIGNsYXNzPSJsYWJlbCI+PHJlY3Q+PC9yZWN0Pjxmb3JlaWduT2JqZWN0IGhlaWdodD0iNDgiIHdpZHRoPSIyMDAiPjxkaXYgc3R5bGU9ImRpc3BsYXk6IHRhYmxlOyB3aGl0ZS1zcGFjZTogYnJlYWstc3BhY2VzOyBsaW5lLWhlaWdodDogMS41OyBtYXgtd2lkdGg6IDIwMHB4OyB0ZXh0LWFsaWduOiBjZW50ZXI7IHdpZHRoOiAyMDBweDsiIHhtbG5zPSJodHRwOi8vd3d3LnczLm9yZy8xOTk5L3hodG1sIj48c3BhbiBjbGFzcz0ibm9kZUxhYmVsIj48cD5SZWFjdCDliY3nq68gKFJlYWN0LCBWaXRlLCBBbnREKTwvcD48L3NwYW4+PC9kaXY+PC9mb3JlaWduT2JqZWN0PjwvZz48L2c+PGcgdHJhbnNmb3JtPSJ0cmFuc2xhdGUoMzMwLjQ1ODk4NDM3NSwgNDgwLjUpIiBpZD0iZmxvd2NoYXJ0LUJFLTMiIGNsYXNzPSJub2RlIGRlZmF1bHQgc2VydmVyIGRlZmF1bHQiPjxyZWN0IGhlaWdodD0iNzgiIHdpZHRoPSIyNjAiIHk9Ii0zOSIgeD0iLTEzMCIgc3R5bGU9ImZpbGw6I0ZGRjJDQyAhaW1wb3J0YW50O3N0cm9rZTojRDZCNjU2ICFpbXBvcnRhbnQ7c3Ryb2tlLXdpZHRoOjFweCAhaW1wb3J0YW50IiBjbGFzcz0iYmFzaWMgbGFiZWwtY29udGFpbmVyIj48L3JlY3Q+PGcgdHJhbnNmb3JtPSJ0cmFuc2xhdGUoLTEwMCwgLTI0KSIgc3R5bGU9IiIgY2xhc3M9ImxhYmVsIj48cmVjdD48L3JlY3Q+PGZvcmVpZ25PYmplY3QgaGVpZ2h0PSI0OCIgd2lkdGg9IjIwMCI+PGRpdiBzdHlsZT0iZGlzcGxheTogdGFibGU7IHdoaXRlLXNwYWNlOiBicmVhay1zcGFjZXM7IGxpbmUtaGVpZ2h0OiAxLjU7IG1heC13aWR0aDogMjAwcHg7IHRleHQtYWxpZ246IGNlbnRlcjsgd2lkdGg6IDIwMHB4OyIgeG1sbnM9Imh0dHA6Ly93d3cudzMub3JnLzE5OTkveGh0bWwiPjxzcGFuIGNsYXNzPSJub2RlTGFiZWwiPjxwPkZhc3RBUEkg5ZCO56uvIChQeXRob24sIEZhc3RBUEkpPC9wPjwvc3Bhbj48L2Rpdj48L2ZvcmVpZ25PYmplY3Q+PC9nPjwvZz48ZyB0cmFuc2Zvcm09InRyYW5zbGF0ZSgyODIuODg2NzE4NzUsIDkyMikiIGlkPSJmbG93Y2hhcnQtRXhjZWwtNCIgY2xhc3M9Im5vZGUgZGVmYXVsdCBmaWxlIGRlZmF1bHQiPjxyZWN0IGhlaWdodD0iNTQiIHdpZHRoPSIxMzQuNzczNDM3NSIgeT0iLTI3IiB4PSItNjcuMzg2NzE4NzUiIHN0eWxlPSJmaWxsOiNGOENFQ0MgIWltcG9ydGFudDtzdHJva2U6I0I4NTQ1MCAhaW1wb3J0YW50O3N0cm9rZS13aWR0aDoxcHggIWltcG9ydGFudCIgY2xhc3M9ImJhc2ljIGxhYmVsLWNvbnRhaW5lciI+PC9yZWN0PjxnIHRyYW5zZm9ybT0idHJhbnNsYXRlKC0zNy4zODY3MTg3NSwgLTEyKSIgc3R5bGU9IiIgY2xhc3M9ImxhYmVsIj48cmVjdD48L3JlY3Q+PGZvcmVpZ25PYmplY3QgaGVpZ2h0PSIyNCIgd2lkdGg9Ijc0Ljc3MzQzNzUiPjxkaXYgc3R5bGU9ImRpc3BsYXk6IHRhYmxlLWNlbGw7IHdoaXRlLXNwYWNlOiBub3dyYXA7IGxpbmUtaGVpZ2h0OiAxLjU7IG1heC13aWR0aDogMjAwcHg7IHRleHQtYWxpZ246IGNlbnRlcjsiIHhtbG5zPSJodHRwOi8vd3d3LnczLm9yZy8xOTk5L3hodG1sIj48c3BhbiBjbGFzcz0ibm9kZUxhYmVsIj48cD5FeGNlbCDmlofku7Y8L3A+PC9zcGFuPjwvZGl2PjwvZm9yZWlnbk9iamVjdD48L2c+PC9nPjxnIHRyYW5zZm9ybT0idHJhbnNsYXRlKDQ4OC42MDU0Njg3NSwgNjY5KSIgaWQ9ImZsb3djaGFydC1TY3JpcHRzLTUiIGNsYXNzPSJub2RlIGRlZmF1bHQgdG9vbCBkZWZhdWx0Ij48cmVjdCBoZWlnaHQ9IjU0IiB3aWR0aD0iMTk0LjYxNzE4NzUiIHk9Ii0yNyIgeD0iLTk3LjMwODU5Mzc1IiBzdHlsZT0iZmlsbDojRDVFOEQ0ICFpbXBvcnRhbnQ7c3Ryb2tlOiM4MkIzNjYgIWltcG9ydGFudDtzdHJva2Utd2lkdGg6MXB4ICFpbXBvcnRhbnQiIGNsYXNzPSJiYXNpYyBsYWJlbC1jb250YWluZXIiPjwvcmVjdD48ZyB0cmFuc2Zvcm09InRyYW5zbGF0ZSgtNjcuMzA4NTkzNzUsIC0xMikiIHN0eWxlPSIiIGNsYXNzPSJsYWJlbCI+PHJlY3Q+PC9yZWN0Pjxmb3JlaWduT2JqZWN0IGhlaWdodD0iMjQiIHdpZHRoPSIxMzQuNjE3MTg3NSI+PGRpdiBzdHlsZT0iZGlzcGxheTogdGFibGUtY2VsbDsgd2hpdGUtc3BhY2U6IG5vd3JhcDsgbGluZS1oZWlnaHQ6IDEuNTsgbWF4LXdpZHRoOiAyMDBweDsgdGV4dC1hbGlnbjogY2VudGVyOyIgeG1sbnM9Imh0dHA6Ly93d3cudzMub3JnLzE5OTkveGh0bWwiPjxzcGFuIGNsYXNzPSJub2RlTGFiZWwiPjxwPlB5dGhvbiDohJrmnKwgKOa4heeQhik8L3A+PC9zcGFuPjwvZGl2PjwvZm9yZWlnbk9iamVjdD48L2c+PC9nPjxnIHRyYW5zZm9ybT0idHJhbnNsYXRlKDQ4OC42MDU0Njg3NSwgNzk1LjUpIiBpZD0iZmxvd2NoYXJ0LUNTVkZvbGRlci02IiBjbGFzcz0ibm9kZSBkZWZhdWx0IHN0b3JhZ2UgZGVmYXVsdCI+PHJlY3QgaGVpZ2h0PSI1NCIgd2lkdGg9IjE3Ni4zMDQ2ODc1IiB5PSItMjciIHg9Ii04OC4xNTIzNDM3NSIgc3R5bGU9ImZpbGw6I0U2RTZFNiAhaW1wb3J0YW50O3N0cm9rZTojNjY2NjY2ICFpbXBvcnRhbnQ7c3Ryb2tlLXdpZHRoOjFweCAhaW1wb3J0YW50IiBjbGFzcz0iYmFzaWMgbGFiZWwtY29udGFpbmVyIj48L3JlY3Q+PGcgdHJhbnNmb3JtPSJ0cmFuc2xhdGUoLTU4LjE1MjM0Mzc1LCAtMTIpIiBzdHlsZT0iIiBjbGFzcz0ibGFiZWwiPjxyZWN0PjwvcmVjdD48Zm9yZWlnbk9iamVjdCBoZWlnaHQ9IjI0IiB3aWR0aD0iMTE2LjMwNDY4NzUiPjxkaXYgc3R5bGU9ImRpc3BsYXk6IHRhYmxlLWNlbGw7IHdoaXRlLXNwYWNlOiBub3dyYXA7IGxpbmUtaGVpZ2h0OiAxLjU7IG1heC13aWR0aDogMjAwcHg7IHRleHQtYWxpZ246IGNlbnRlcjsiIHhtbG5zPSJodHRwOi8vd3d3LnczLm9yZy8xOTk5L3hodG1sIj48c3BhbiBjbGFzcz0ibm9kZUxhYmVsIj48cD7moIflh4YgQ1NWIOaWh+S7tuWkuTwvcD48L3NwYW4+PC9kaXY+PC9mb3JlaWduT2JqZWN0PjwvZz48L2c+PGcgdHJhbnNmb3JtPSJ0cmFuc2xhdGUoNDg4LjYwNTQ2ODc1LCA5MjIpIiBpZD0iZmxvd2NoYXJ0LUFpcmJ5dGUtNyIgY2xhc3M9Im5vZGUgZGVmYXVsdCB0b29sIGRlZmF1bHQiPjxyZWN0IGhlaWdodD0iNTQiIHdpZHRoPSIxNzYuNjY0MDYyNSIgeT0iLTI3IiB4PSItODguMzMyMDMxMjUiIHN0eWxlPSJmaWxsOiNENUU4RDQgIWltcG9ydGFudDtzdHJva2U6IzgyQjM2NiAhaW1wb3J0YW50O3N0cm9rZS13aWR0aDoxcHggIWltcG9ydGFudCIgY2xhc3M9ImJhc2ljIGxhYmVsLWNvbnRhaW5lciI+PC9yZWN0PjxnIHRyYW5zZm9ybT0idHJhbnNsYXRlKC01OC4zMzIwMzEyNSwgLTEyKSIgc3R5bGU9IiIgY2xhc3M9ImxhYmVsIj48cmVjdD48L3JlY3Q+PGZvcmVpZ25PYmplY3QgaGVpZ2h0PSIyNCIgd2lkdGg9IjExNi42NjQwNjI1Ij48ZGl2IHN0eWxlPSJkaXNwbGF5OiB0YWJsZS1jZWxsOyB3aGl0ZS1zcGFjZTogbm93cmFwOyBsaW5lLWhlaWdodDogMS41OyBtYXgtd2lkdGg6IDIwMHB4OyB0ZXh0LWFsaWduOiBjZW50ZXI7IiB4bWxucz0iaHR0cDovL3d3dy53My5vcmcvMTk5OS94aHRtbCI+PHNwYW4gY2xhc3M9Im5vZGVMYWJlbCI+PHA+QWlyYnl0ZSAo6K6h5YiS5LitKTwvcD48L3NwYW4+PC9kaXY+PC9mb3JlaWduT2JqZWN0PjwvZz48L2c+PGcgdHJhbnNmb3JtPSJ0cmFuc2xhdGUoODgyLjQxNDA2MjUsIDEzOTkuOTUxMDE5Mjg3MTA5NCkiIGlkPSJmbG93Y2hhcnQtREItOCIgY2xhc3M9Im5vZGUgZGVmYXVsdCBkYiBkZWZhdWx0Ij48cGF0aCB0cmFuc2Zvcm09InRyYW5zbGF0ZSgtNzMuMTk1MzEyNSwgLTM5LjcyNzg0ODQ2NTY1NzIpIiBzdHlsZT0iZmlsbDojQjFEREYwICFpbXBvcnRhbnQ7c3Ryb2tlOiMxMDczOUUgIWltcG9ydGFudDtzdHJva2Utd2lkdGg6MnB4ICFpbXBvcnRhbnQiIGNsYXNzPSJiYXNpYyBsYWJlbC1jb250YWluZXIiIGQ9Ik0wLDEzLjQ4NTIzMjMxMDQzODEzNyBhNzMuMTk1MzEyNSwxMy40ODUyMzIzMTA0MzgxMzcgMCwwLDAgMTQ2LjM5MDYyNSwwIGE3My4xOTUzMTI1LDEzLjQ4NTIzMjMxMDQzODEzNyAwLDAsMCAtMTQ2LjM5MDYyNSwwIGwwLDUyLjQ4NTIzMjMxMDQzODEzNiBhNzMuMTk1MzEyNSwxMy40ODUyMzIzMTA0MzgxMzcgMCwwLDAgMTQ2LjM5MDYyNSwwIGwwLC01Mi40ODUyMzIzMTA0MzgxMzYiPjwvcGF0aD48ZyB0cmFuc2Zvcm09InRyYW5zbGF0ZSgtNjUuNjk1MzEyNSwgLTIpIiBzdHlsZT0iIiBjbGFzcz0ibGFiZWwiPjxyZWN0PjwvcmVjdD48Zm9yZWlnbk9iamVjdCBoZWlnaHQ9IjI0IiB3aWR0aD0iMTMxLjM5MDYyNSI+PGRpdiBzdHlsZT0iZGlzcGxheTogdGFibGUtY2VsbDsgd2hpdGUtc3BhY2U6IG5vd3JhcDsgbGluZS1oZWlnaHQ6IDEuNTsgbWF4LXdpZHRoOiAyMDBweDsgdGV4dC1hbGlnbjogY2VudGVyOyIgeG1sbnM9Imh0dHA6Ly93d3cudzMub3JnLzE5OTkveGh0bWwiPjxzcGFuIGNsYXNzPSJub2RlTGFiZWwiPjxwPlBvc3RncmVTUUwg5pWw5o2u5bqTPC9wPjwvc3Bhbj48L2Rpdj48L2ZvcmVpZ25PYmplY3Q+PC9nPjwvZz48ZyB0cmFuc2Zvcm09InRyYW5zbGF0ZSgzMzAuNDU4OTg0Mzc1LCAxMTI4LjU2NjQ5MDE3MzMzOTgpIiBpZD0iZmxvd2NoYXJ0LVN0YWdpbmdEQi05IiBjbGFzcz0ibm9kZSBkZWZhdWx0IGRiX2ludCBkZWZhdWx0Ij48cGF0aCB0cmFuc2Zvcm09InRyYW5zbGF0ZSgtMzEuNSwgLTMyLjA2NjQ4OTM2MTcwMjEyNSkiIHN0eWxlPSJmaWxsOiNCMURERjAgIWltcG9ydGFudDtzdHJva2U6IzEwNzM5RSAhaW1wb3J0YW50O3N0cm9rZS13aWR0aDoxcHggIWltcG9ydGFudCIgY2xhc3M9ImJhc2ljIGxhYmVsLWNvbnRhaW5lciIgZD0iTTAsOC4zNzc2NTk1NzQ0NjgwODUgYTMxLjUsOC4zNzc2NTk1NzQ0NjgwODUgMCwwLDAgNjMsMCBhMzEuNSw4LjM3NzY1OTU3NDQ2ODA4NSAwLDAsMCAtNjMsMCBsMCw0Ny4zNzc2NTk1NzQ0NjgwOCBhMzEuNSw4LjM3NzY1OTU3NDQ2ODA4NSAwLDAsMCA2MywwIGwwLC00Ny4zNzc2NTk1NzQ0NjgwOCI+PC9wYXRoPjxnIHRyYW5zZm9ybT0idHJhbnNsYXRlKC0yNCwgLTIpIiBzdHlsZT0iIiBjbGFzcz0ibGFiZWwiPjxyZWN0PjwvcmVjdD48Zm9yZWlnbk9iamVjdCBoZWlnaHQ9IjI0IiB3aWR0aD0iNDgiPjxkaXYgc3R5bGU9ImRpc3BsYXk6IHRhYmxlLWNlbGw7IHdoaXRlLXNwYWNlOiBub3dyYXA7IGxpbmUtaGVpZ2h0OiAxLjU7IG1heC13aWR0aDogMjAwcHg7IHRleHQtYWxpZ246IGNlbnRlcjsiIHhtbG5zPSJodHRwOi8vd3d3LnczLm9yZy8xOTk5L3hodG1sIj48c3BhbiBjbGFzcz0ibm9kZUxhYmVsIj48cD7mmoLlrZjooag8L3A+PC9zcGFuPjwvZGl2PjwvZm9yZWlnbk9iamVjdD48L2c+PC9nPjxnIHRyYW5zZm9ybT0idHJhbnNsYXRlKDE1MC45NjY3OTY4NzUsIDEzOTkuOTUxMDE5Mjg3MTA5NCkiIGlkPSJmbG93Y2hhcnQtQ29yZVRhYmxlcy0xMCIgY2xhc3M9Im5vZGUgZGVmYXVsdCBkYl9pbnQgZGVmYXVsdCI+PHBhdGggdHJhbnNmb3JtPSJ0cmFuc2xhdGUoLTMxLjUsIC0zMi4wNjY0ODkzNjE3MDIxMjUpIiBzdHlsZT0iZmlsbDojQjFEREYwICFpbXBvcnRhbnQ7c3Ryb2tlOiMxMDczOUUgIWltcG9ydGFudDtzdHJva2Utd2lkdGg6MXB4ICFpbXBvcnRhbnQiIGNsYXNzPSJiYXNpYyBsYWJlbC1jb250YWluZXIiIGQ9Ik0wLDguMzc3NjU5NTc0NDY4MDg1IGEzMS41LDguMzc3NjU5NTc0NDY4MDg1IDAsMCwwIDYzLDAgYTMxLjUsOC4zNzc2NTk1NzQ0NjgwODUgMCwwLDAgLTYzLDAgbDAsNDcuMzc3NjU5NTc0NDY4MDggYTMxLjUsOC4zNzc2NTk1NzQ0NjgwODUgMCwwLDAgNjMsMCBsMCwtNDcuMzc3NjU5NTc0NDY4MDgiPjwvcGF0aD48ZyB0cmFuc2Zvcm09InRyYW5zbGF0ZSgtMjQsIC0yKSIgc3R5bGU9IiIgY2xhc3M9ImxhYmVsIj48cmVjdD48L3JlY3Q+PGZvcmVpZ25PYmplY3QgaGVpZ2h0PSIyNCIgd2lkdGg9IjQ4Ij48ZGl2IHN0eWxlPSJkaXNwbGF5OiB0YWJsZS1jZWxsOyB3aGl0ZS1zcGFjZTogbm93cmFwOyBsaW5lLWhlaWdodDogMS41OyBtYXgtd2lkdGg6IDIwMHB4OyB0ZXh0LWFsaWduOiBjZW50ZXI7IiB4bWxucz0iaHR0cDovL3d3dy53My5vcmcvMTk5OS94aHRtbCI+PHNwYW4gY2xhc3M9Im5vZGVMYWJlbCI+PHA+5qC45b+D6KGoPC9wPjwvc3Bhbj48L2Rpdj48L2ZvcmVpZ25PYmplY3Q+PC9nPjwvZz48ZyB0cmFuc2Zvcm09InRyYW5zbGF0ZSgzNzkuMjY5NTMxMjUsIDEzOTkuOTUxMDE5Mjg3MTA5NCkiIGlkPSJmbG93Y2hhcnQtTWFydHNWaWV3cy0xMSIgY2xhc3M9Im5vZGUgZGVmYXVsdCBkYl9pbnQgZGVmYXVsdCI+PHBhdGggdHJhbnNmb3JtPSJ0cmFuc2xhdGUoLTc3Ljk5NjA5Mzc1LCAtNDAuMzE4MDQxNTM4MDc2NTcpIiBzdHlsZT0iZmlsbDojQjFEREYwICFpbXBvcnRhbnQ7c3Ryb2tlOiMxMDczOUUgIWltcG9ydGFudDtzdHJva2Utd2lkdGg6MXB4ICFpbXBvcnRhbnQiIGNsYXNzPSJiYXNpYyBsYWJlbC1jb250YWluZXIiIGQ9Ik0wLDEzLjg3ODY5NDM1ODcxNzcxNSBhNzcuOTk2MDkzNzUsMTMuODc4Njk0MzU4NzE3NzE1IDAsMCwwIDE1NS45OTIxODc1LDAgYTc3Ljk5NjA5Mzc1LDEzLjg3ODY5NDM1ODcxNzcxNSAwLDAsMCAtMTU1Ljk5MjE4NzUsMCBsMCw1Mi44Nzg2OTQzNTg3MTc3MTYgYTc3Ljk5NjA5Mzc1LDEzLjg3ODY5NDM1ODcxNzcxNSAwLDAsMCAxNTUuOTkyMTg3NSwwIGwwLC01Mi44Nzg2OTQzNTg3MTc3MTYiPjwvcGF0aD48ZyB0cmFuc2Zvcm09InRyYW5zbGF0ZSgtNzAuNDk2MDkzNzUsIC0yKSIgc3R5bGU9IiIgY2xhc3M9ImxhYmVsIj48cmVjdD48L3JlY3Q+PGZvcmVpZ25PYmplY3QgaGVpZ2h0PSIyNCIgd2lkdGg9IjE0MC45OTIxODc1Ij48ZGl2IHN0eWxlPSJkaXNwbGF5OiB0YWJsZS1jZWxsOyB3aGl0ZS1zcGFjZTogbm93cmFwOyBsaW5lLWhlaWdodDogMS41OyBtYXgtd2lkdGg6IDIwMHB4OyB0ZXh0LWFsaWduOiBjZW50ZXI7IiB4bWxucz0iaHR0cDovL3d3dy53My5vcmcvMTk5OS94aHRtbCI+PHNwYW4gY2xhc3M9Im5vZGVMYWJlbCI+PHA+ZGJ0IOaVsOaNrumbhuW4guWSjOinhuWbvjwvcD48L3NwYW4+PC9kaXY+PC9mb3JlaWduT2JqZWN0PjwvZz48L2c+PGcgdHJhbnNmb3JtPSJ0cmFuc2xhdGUoNjUwLjk3NjU2MjUsIDEyNjAuMTMyOTgwMzQ2Njc5NykiIGlkPSJmbG93Y2hhcnQtREJULTEyIiBjbGFzcz0ibm9kZSBkZWZhdWx0IHRvb2wgZGVmYXVsdCI+PHJlY3QgaGVpZ2h0PSI1NCIgd2lkdGg9IjE2NC43NDIxODc1IiB5PSItMjciIHg9Ii04Mi4zNzEwOTM3NSIgc3R5bGU9ImZpbGw6I0Q1RThENCAhaW1wb3J0YW50O3N0cm9rZTojODJCMzY2ICFpbXBvcnRhbnQ7c3Ryb2tlLXdpZHRoOjFweCAhaW1wb3J0YW50IiBjbGFzcz0iYmFzaWMgbGFiZWwtY29udGFpbmVyIj48L3JlY3Q+PGcgdHJhbnNmb3JtPSJ0cmFuc2xhdGUoLTUyLjM3MTA5Mzc1LCAtMTIpIiBzdHlsZT0iIiBjbGFzcz0ibGFiZWwiPjxyZWN0PjwvcmVjdD48Zm9yZWlnbk9iamVjdCBoZWlnaHQ9IjI0IiB3aWR0aD0iMTA0Ljc0MjE4NzUiPjxkaXYgc3R5bGU9ImRpc3BsYXk6IHRhYmxlLWNlbGw7IHdoaXRlLXNwYWNlOiBub3dyYXA7IGxpbmUtaGVpZ2h0OiAxLjU7IG1heC13aWR0aDogMjAwcHg7IHRleHQtYWxpZ246IGNlbnRlcjsiIHhtbG5zPSJodHRwOi8vd3d3LnczLm9yZy8xOTk5L3hodG1sIj48c3BhbiBjbGFzcz0ibm9kZUxhYmVsIj48cD5kYnQgKOaVsOaNrui9rOaNoik8L3A+PC9zcGFuPjwvZGl2PjwvZm9yZWlnbk9iamVjdD48L2c+PC9nPjxnIHRyYW5zZm9ybT0idHJhbnNsYXRlKDg4Mi40MTQwNjI1LCAxMjYwLjEzMjk4MDM0NjY3OTcpIiBpZD0iZmxvd2NoYXJ0LUFsZW1iaWMtMTMiIGNsYXNzPSJub2RlIGRlZmF1bHQgdG9vbCBkZWZhdWx0Ij48cmVjdCBoZWlnaHQ9IjU0IiB3aWR0aD0iMTk4LjEzMjgxMjUiIHk9Ii0yNyIgeD0iLTk5LjA2NjQwNjI1IiBzdHlsZT0iZmlsbDojRDVFOEQ0ICFpbXBvcnRhbnQ7c3Ryb2tlOiM4MkIzNjYgIWltcG9ydGFudDtzdHJva2Utd2lkdGg6MXB4ICFpbXBvcnRhbnQiIGNsYXNzPSJiYXNpYyBsYWJlbC1jb250YWluZXIiPjwvcmVjdD48ZyB0cmFuc2Zvcm09InRyYW5zbGF0ZSgtNjkuMDY2NDA2MjUsIC0xMikiIHN0eWxlPSIiIGNsYXNzPSJsYWJlbCI+PHJlY3Q+PC9yZWN0Pjxmb3JlaWduT2JqZWN0IGhlaWdodD0iMjQiIHdpZHRoPSIxMzguMTMyODEyNSI+PGRpdiBzdHlsZT0iZGlzcGxheTogdGFibGUtY2VsbDsgd2hpdGUtc3BhY2U6IG5vd3JhcDsgbGluZS1oZWlnaHQ6IDEuNTsgbWF4LXdpZHRoOiAyMDBweDsgdGV4dC1hbGlnbjogY2VudGVyOyIgeG1sbnM9Imh0dHA6Ly93d3cudzMub3JnLzE5OTkveGh0bWwiPjxzcGFuIGNsYXNzPSJub2RlTGFiZWwiPjxwPkFsZW1iaWMgKOaooeW8j+i/geenuyk8L3A+PC9zcGFuPjwvZGl2PjwvZm9yZWlnbk9iamVjdD48L2c+PC9nPjxnIHRyYW5zZm9ybT0idHJhbnNsYXRlKDQ3Mi42NzU3ODEyNSwgMTYxNC43NjkwNTgyMjc1MzkpIiBpZD0iZmxvd2NoYXJ0LU1ldGFiYXNlLTE0IiBjbGFzcz0ibm9kZSBkZWZhdWx0IHJlcG9ydGluZyBkZWZhdWx0Ij48cmVjdCBoZWlnaHQ9IjU0IiB3aWR0aD0iMTI3LjM1MTU2MjUiIHk9Ii0yNyIgeD0iLTYzLjY3NTc4MTI1IiBzdHlsZT0iZmlsbDojRkZFNkNDICFpbXBvcnRhbnQ7c3Ryb2tlOiNENzlCMDAgIWltcG9ydGFudDtzdHJva2Utd2lkdGg6MXB4ICFpbXBvcnRhbnQiIGNsYXNzPSJiYXNpYyBsYWJlbC1jb250YWluZXIiPjwvcmVjdD48ZyB0cmFuc2Zvcm09InRyYW5zbGF0ZSgtMzMuNjc1NzgxMjUsIC0xMikiIHN0eWxlPSIiIGNsYXNzPSJsYWJlbCI+PHJlY3Q+PC9yZWN0Pjxmb3JlaWduT2JqZWN0IGhlaWdodD0iMjQiIHdpZHRoPSI2Ny4zNTE1NjI1Ij48ZGl2IHN0eWxlPSJkaXNwbGF5OiB0YWJsZS1jZWxsOyB3aGl0ZS1zcGFjZTogbm93cmFwOyBsaW5lLWhlaWdodDogMS41OyBtYXgtd2lkdGg6IDIwMHB4OyB0ZXh0LWFsaWduOiBjZW50ZXI7IiB4bWxucz0iaHR0cDovL3d3dy53My5vcmcvMTk5OS94aHRtbCI+PHNwYW4gY2xhc3M9Im5vZGVMYWJlbCI+PHA+TWV0YWJhc2U8L3A+PC9zcGFuPjwvZGl2PjwvZm9yZWlnbk9iamVjdD48L2c+PC9nPjxnIHRyYW5zZm9ybT0idHJhbnNsYXRlKDExMzcuNjU4MjAzMTI1LCAxNjE0Ljc2OTA1ODIyNzUzOSkiIGlkPSJmbG93Y2hhcnQtSmltdVJlcG9ydC0xNSIgY2xhc3M9Im5vZGUgZGVmYXVsdCByZXBvcnRpbmcgZGVmYXVsdCI+PHJlY3QgaGVpZ2h0PSI1NCIgd2lkdGg9IjEyNCIgeT0iLTI3IiB4PSItNjIiIHN0eWxlPSJmaWxsOiNGRkU2Q0MgIWltcG9ydGFudDtzdHJva2U6I0Q3OUIwMCAhaW1wb3J0YW50O3N0cm9rZS13aWR0aDoxcHggIWltcG9ydGFudCIgY2xhc3M9ImJhc2ljIGxhYmVsLWNvbnRhaW5lciI+PC9yZWN0PjxnIHRyYW5zZm9ybT0idHJhbnNsYXRlKC0zMiwgLTEyKSIgc3R5bGU9IiIgY2xhc3M9ImxhYmVsIj48cmVjdD48L3JlY3Q+PGZvcmVpZ25PYmplY3QgaGVpZ2h0PSIyNCIgd2lkdGg9IjY0Ij48ZGl2IHN0eWxlPSJkaXNwbGF5OiB0YWJsZS1jZWxsOyB3aGl0ZS1zcGFjZTogbm93cmFwOyBsaW5lLWhlaWdodDogMS41OyBtYXgtd2lkdGg6IDIwMHB4OyB0ZXh0LWFsaWduOiBjZW50ZXI7IiB4bWxucz0iaHR0cDovL3d3dy53My5vcmcvMTk5OS94aHRtbCI+PHNwYW4gY2xhc3M9Im5vZGVMYWJlbCI+PHA+56ev5pyo5oql6KGoPC9wPjwvc3Bhbj48L2Rpdj48L2ZvcmVpZ25PYmplY3Q+PC9nPjwvZz48L2c+PC9nPjwvZz48L3N2Zz4=;" vertex="1" parent="1">
                        <mxGeometry x="-980" y="-1690" width="1276.658203125" height="1674.76904296875" as="geometry"/>
                    </mxCell>
                </UserObject>
            </root>
        </mxGraphModel>
    </diagram>
</mxfile>